<svg width="250" height="200" viewBox="0 0 250 200" fill="none" xmlns="http://www.w3.org/2000/svg">
<path fill-rule="evenodd" clip-rule="evenodd" d="M63 134H154C154.515 134 155.017 133.944 155.5 133.839C155.983 133.944 156.485 134 157 134H209C212.866 134 216 130.866 216 127C216 123.134 212.866 120 209 120H203C199.134 120 196 116.866 196 113C196 109.134 199.134 106 203 106H222C225.866 106 229 102.866 229 99C229 95.134 225.866 92 222 92H200C203.866 92 207 88.866 207 85C207 81.134 203.866 78 200 78H136C139.866 78 143 74.866 143 71C143 67.134 139.866 64 136 64H79C75.134 64 72 67.134 72 71C72 74.866 75.134 78 79 78H39C35.134 78 32 81.134 32 85C32 88.866 35.134 92 39 92H64C67.866 92 71 95.134 71 99C71 102.866 67.866 106 64 106H24C20.134 106 17 109.134 17 113C17 116.866 20.134 120 24 120H63C59.134 120 56 123.134 56 127C56 130.866 59.134 134 63 134ZM226 134C229.866 134 233 130.866 233 127C233 123.134 229.866 120 226 120C222.134 120 219 123.134 219 127C219 130.866 222.134 134 226 134Z" fill="#C3CBCF"/>
<path d="M76.25 44.25H156.75V88.5C156.75 89.1904 156.19 89.75 155.5 89.75H77.5C76.8096 89.75 76.25 89.1904 76.25 88.5V44.25Z" fill="#DFE0E1" stroke="#2D4B59" stroke-width="2.5"/>
<mask id="path-3-inside-1_441_16" fill="white">
<path d="M75 32C75 30.3431 76.3431 29 78 29H155C156.657 29 158 30.3431 158 32V43H75V32Z"/>
</mask>
<path d="M75 32C75 30.3431 76.3431 29 78 29H155C156.657 29 158 30.3431 158 32V43H75V32Z" fill="white"/>
<path d="M72.5 32C72.5 28.9624 74.9624 26.5 78 26.5H155C158.038 26.5 160.5 28.9624 160.5 32H155.5C155.5 31.7239 155.276 31.5 155 31.5H78C77.7239 31.5 77.5 31.7239 77.5 32H72.5ZM158 43H75H158ZM72.5 43V32C72.5 28.9624 74.9624 26.5 78 26.5V31.5C77.7239 31.5 77.5 31.7239 77.5 32V43H72.5ZM155 26.5C158.038 26.5 160.5 28.9624 160.5 32V43H155.5V32C155.5 31.7239 155.276 31.5 155 31.5V26.5Z" fill="#2D4B59" mask="url(#path-3-inside-1_441_16)"/>
<circle cx="83" cy="37" r="2.75" stroke="#2D4B59" stroke-width="2.5"/>
<circle cx="93" cy="37" r="2.75" stroke="#2D4B59" stroke-width="2.5"/>
<circle cx="103" cy="37" r="2.75" stroke="#2D4B59" stroke-width="2.5"/>
<path d="M97.25 74.25H177.75V118.5C177.75 119.19 177.19 119.75 176.5 119.75H98.5C97.8096 119.75 97.25 119.19 97.25 118.5V74.25Z" fill="#FFC4C4" stroke="#2D4B59" stroke-width="2.5"/>
<mask id="path-9-inside-2_441_16" fill="white">
<path d="M96 62C96 60.3431 97.3431 59 99 59H176C177.657 59 179 60.3431 179 62V73H96V62Z"/>
</mask>
<path d="M96 62C96 60.3431 97.3431 59 99 59H176C177.657 59 179 60.3431 179 62V73H96V62Z" fill="white"/>
<path d="M93.5 62C93.5 58.9624 95.9624 56.5 99 56.5H176C179.038 56.5 181.5 58.9624 181.5 62H176.5C176.5 61.7239 176.276 61.5 176 61.5H99C98.7239 61.5 98.5 61.7239 98.5 62H93.5ZM179 73H96H179ZM93.5 73V62C93.5 58.9624 95.9624 56.5 99 56.5V61.5C98.7239 61.5 98.5 61.7239 98.5 62V73H93.5ZM176 56.5C179.038 56.5 181.5 58.9624 181.5 62V73H176.5V62C176.5 61.7239 176.276 61.5 176 61.5V56.5Z" fill="#2D4B59" mask="url(#path-9-inside-2_441_16)"/>
<circle cx="104" cy="67" r="2.75" stroke="#2D4B59" stroke-width="2.5"/>
<circle cx="114" cy="67" r="2.75" stroke="#2D4B59" stroke-width="2.5"/>
<circle cx="124" cy="67" r="2.75" stroke="#2D4B59" stroke-width="2.5"/>
<path d="M114 85L122 93" stroke="#2D4B59" stroke-width="2.5" stroke-linecap="round"/>
<path d="M114 93L122 85" stroke="#2D4B59" stroke-width="2.5" stroke-linecap="round"/>
<path d="M154 85L162 93" stroke="#2D4B59" stroke-width="2.5" stroke-linecap="round"/>
<path d="M154 93L162 85" stroke="#2D4B59" stroke-width="2.5" stroke-linecap="round"/>
<path d="M131 109H145" stroke="#2D4B59" stroke-width="2.5" stroke-linecap="round"/>
</svg>
