<svg width="18" height="18" viewBox="0 0 18 18" fill="none" xmlns="http://www.w3.org/2000/svg">
<path d="M15.4717 6.13555C14.8833 6.49577 14.396 6.99938 14.0552 7.59924C13.7145 8.19911 13.5315 8.87562 13.5234 9.56546C13.5257 10.3419 13.7558 11.1005 14.185 11.7475C14.6143 12.3945 15.2239 12.9013 15.9383 13.2052C15.6566 14.1141 15.2397 14.9753 14.7017 15.7601C13.9318 16.8684 13.1267 17.9766 11.9018 17.9766C10.6769 17.9766 10.3619 17.265 8.95028 17.265C7.57368 17.265 7.08368 18 5.96372 18C4.84376 18 4.06222 16.9733 3.16388 15.7134C1.97724 13.9484 1.32508 11.8785 1.28564 9.75206C1.28564 6.25223 3.56058 4.39738 5.80039 4.39738C6.99038 4.39738 7.98202 5.17892 8.72866 5.17892C9.44028 5.17892 10.5486 4.35062 11.9018 4.35062C12.5976 4.33266 13.2871 4.48607 13.9096 4.79734C14.5321 5.1086 15.0686 5.56816 15.4717 6.13555ZM11.2602 2.86908C11.8568 2.16736 12.1944 1.28219 12.2169 0.361459C12.2179 0.240079 12.2061 0.118929 12.1818 0C11.1572 0.100094 10.2096 0.588472 9.53358 1.36496C8.93131 2.03873 8.58091 2.90025 8.54194 3.80312C8.54239 3.91292 8.55413 4.02238 8.57696 4.12979C8.65774 4.14506 8.73975 4.15288 8.82196 4.15317C9.2942 4.11559 9.75387 3.98238 10.173 3.76164C10.5922 3.54089 10.9621 3.23722 11.2602 2.86908Z" fill="white"/>
</svg>
