<svg width="22" height="21" viewBox="0 0 22 21" fill="none" xmlns="http://www.w3.org/2000/svg">
<path d="M7 1L8.88 2.88M13.12 2.88L15 1M8 6.13V5.13C7.98187 4.72475 8.04604 4.32002 8.18863 3.94025C8.33122 3.56048 8.54927 3.21353 8.82963 2.92035C9.10999 2.62717 9.44685 2.39383 9.81987 2.23441C10.1929 2.07499 10.5943 1.9928 11 1.9928C11.4057 1.9928 11.8071 2.07499 12.1801 2.23441C12.5532 2.39383 12.89 2.62717 13.1704 2.92035C13.4507 3.21353 13.6688 3.56048 13.8114 3.94025C13.954 4.32002 14.0181 4.72475 14 5.13V6.13M11 19C7.7 19 5 16.3 5 13V10C5 8.93913 5.42143 7.92172 6.17157 7.17157C6.92172 6.42143 7.93913 6 9 6H13C14.0609 6 15.0783 6.42143 15.8284 7.17157C16.5786 7.92172 17 8.93913 17 10V13C17 16.3 14.3 19 11 19ZM11 19V10M5.53 8C3.6 7.8 2 6.1 2 4M5 12H1M2 20C2 17.9 3.7 16.1 5.8 16M19.97 4C19.97 6.1 18.37 7.8 16.47 8M21 12H17M16.2 16C18.3 16.1 20 17.9 20 20" stroke="white" stroke-width="2" stroke-linecap="round" stroke-linejoin="round"/>
</svg>
