<svg width="18" height="18" viewBox="0 0 18 18" fill="none" xmlns="http://www.w3.org/2000/svg">
<path d="M16.3641 8.99678C16.3641 8.58498 16.2607 8.17979 16.0629 7.81856C15.8651 7.45726 15.5792 7.15141 15.2322 6.92951C14.9423 6.74409 14.7997 6.397 14.8751 6.06122C14.9659 5.65756 14.9527 5.23725 14.8376 4.83987C14.7224 4.44251 14.5086 4.08044 14.2161 3.78785C13.9235 3.49525 13.5615 3.28082 13.1641 3.1656C12.8163 3.06478 12.4509 3.04249 12.0945 3.0993L11.9428 3.12885C11.6487 3.19497 11.3456 3.09335 11.1504 2.87244L11.0737 2.77099C10.8518 2.42408 10.5466 2.13804 10.1854 1.94025C9.86924 1.76713 9.51905 1.66644 9.16056 1.64389L9.00639 1.6391C8.59463 1.63913 8.18936 1.74254 7.82817 1.94025C7.46689 2.13806 7.16101 2.42398 6.93911 2.77099C6.75375 3.06089 6.40658 3.20413 6.07083 3.12885C5.66777 3.03852 5.24862 3.05151 4.85187 3.16639C4.45501 3.28133 4.09311 3.49441 3.80066 3.78626C3.50831 4.07806 3.29413 4.43935 3.1784 4.83587C3.06275 5.23234 3.04897 5.65165 3.13846 6.05483C3.2132 6.39149 3.06881 6.7387 2.7774 6.92312C2.42781 7.14437 2.13986 7.45058 1.94027 7.81297C1.74068 8.17549 1.63594 8.58296 1.63593 8.99678L1.64072 9.15175C1.66349 9.51186 1.76563 9.8634 1.94027 10.1806C2.13985 10.543 2.4278 10.8492 2.7774 11.0705C3.06879 11.2549 3.21316 11.6021 3.13846 11.9387C3.04892 12.3421 3.06263 12.7619 3.1784 13.1585C3.29414 13.5549 3.50839 13.9156 3.80066 14.2073C4.09311 14.4992 4.45501 14.713 4.85187 14.828C5.24853 14.9428 5.66787 14.9558 6.07083 14.8655L6.19704 14.8471C6.49156 14.8279 6.7779 14.9696 6.93991 15.2242L7.02698 15.352C7.23895 15.643 7.51307 15.8842 7.82977 16.0581C8.19159 16.2568 8.59762 16.3608 9.01038 16.3609C9.42327 16.3609 9.82988 16.2568 10.1918 16.0581C10.5536 15.8594 10.8593 15.5725 11.0809 15.2242L11.1575 15.1227C11.3522 14.9016 11.6543 14.7995 11.9483 14.8647L12.1001 14.8935C12.4561 14.9493 12.821 14.9261 13.1681 14.8248C13.5646 14.709 13.9259 14.4949 14.2177 14.2025C14.5094 13.9102 14.7227 13.5488 14.8376 13.1521C14.9525 12.7553 14.9655 12.3355 14.8751 11.9323C14.7998 11.5966 14.9423 11.2494 15.2322 11.0641C15.5792 10.8422 15.8651 10.5363 16.0629 10.175C16.2606 9.81379 16.3641 9.40857 16.3641 8.99678ZM18 8.99678C18 9.68331 17.8273 10.3588 17.4976 10.961C17.2559 11.4023 16.9349 11.7928 16.5534 12.1161C16.5967 12.6162 16.5493 13.1215 16.4088 13.6066C16.2172 14.268 15.8616 14.8709 15.3752 15.3584C14.8889 15.8456 14.2874 16.2023 13.6266 16.3952C13.1418 16.5367 12.6362 16.5853 12.1361 16.543C11.8127 16.9264 11.4211 17.249 10.9786 17.4919C10.3755 17.8231 9.69844 17.9968 9.01038 17.9968C8.32233 17.9967 7.64529 17.8231 7.04216 17.4919C6.60003 17.2492 6.20876 16.9269 5.88551 16.5438C5.38594 16.5869 4.88119 16.5395 4.39656 16.3992C3.73518 16.2077 3.13301 15.8519 2.6456 15.3656C2.15825 14.8792 1.80093 14.2779 1.60797 13.617C1.46654 13.1325 1.41727 12.6271 1.45939 12.1273C1.0747 11.804 0.751095 11.4119 0.507234 10.969C0.216217 10.4403 0.0459096 9.85495 0.00798793 9.25479L0 8.99678C1.34144e-05 8.30711 0.174622 7.62874 0.507234 7.02456C0.751195 6.58146 1.07449 6.18885 1.45939 5.86552C1.41742 5.36605 1.46669 4.86151 1.60797 4.37736C1.80091 3.71634 2.15818 3.11441 2.6456 2.62801C3.133 2.14169 3.73522 1.7859 4.39656 1.59437C4.88166 1.45389 5.38706 1.40568 5.8871 1.44899C6.21026 1.06772 6.60107 0.747148 7.04216 0.505615C7.64428 0.175925 8.31991 0.00320027 9.00639 0.00317383L9.2636 0.0111618C9.86092 0.0487757 10.4438 0.217195 10.9706 0.505615C11.4117 0.747123 11.8025 1.06776 12.1257 1.44899C12.6268 1.40531 13.1333 1.45346 13.6194 1.59437C14.2818 1.78638 14.8851 2.14274 15.3728 2.6304C15.8604 3.11805 16.2168 3.72139 16.4088 4.38375C16.5497 4.86985 16.597 5.37643 16.5534 5.8775C16.9349 6.20074 17.2559 6.59126 17.4976 7.03255C17.8273 7.6347 18 8.31028 18 8.99678Z" fill="white"/>
<path d="M10.9445 6.72661C11.2657 6.46458 11.7393 6.48306 12.0388 6.78253C12.3383 7.082 12.3568 7.5556 12.0947 7.87688L12.0388 7.93918L8.76695 11.211C8.46748 11.5105 7.99388 11.529 7.67261 11.267L7.6103 11.211L5.97437 9.57511L5.91846 9.5128C5.65642 9.19153 5.6749 8.71793 5.97437 8.41846C6.27384 8.11899 6.74744 8.10051 7.06872 8.36254L7.13102 8.41846L8.18863 9.47606L10.8822 6.78253L10.9445 6.72661Z" fill="white"/>
</svg>
