<svg width="14" height="14" viewBox="0 0 14 14" fill="none" xmlns="http://www.w3.org/2000/svg">
<path d="M12.7276 6.99747C12.7276 6.67718 12.6472 6.36203 12.4934 6.08108C12.3395 5.80006 12.1172 5.56218 11.8473 5.38959C11.6218 5.24537 11.5109 4.97541 11.5695 4.71425C11.6401 4.4003 11.6299 4.07339 11.5403 3.76431C11.4508 3.45526 11.2845 3.17365 11.057 2.94608C10.8294 2.7185 10.5479 2.55172 10.2387 2.4621C9.96822 2.38369 9.68403 2.36635 9.40685 2.41054L9.28881 2.43352C9.06008 2.48495 8.82438 2.40591 8.67249 2.23409L8.61285 2.15519C8.44029 1.88537 8.20291 1.66289 7.92198 1.50905C7.67608 1.37441 7.40371 1.29609 7.12488 1.27856L7.00497 1.27483C6.68471 1.27485 6.3695 1.35528 6.08858 1.50905C5.80758 1.66291 5.56967 1.88529 5.39709 2.15519C5.25292 2.38066 4.9829 2.49207 4.72175 2.43352C4.40827 2.36326 4.08226 2.37337 3.77368 2.46272C3.46501 2.55212 3.18353 2.71785 2.95607 2.94484C2.72868 3.1718 2.5621 3.4528 2.47209 3.76121C2.38214 4.06957 2.37142 4.3957 2.44102 4.70928C2.49915 4.97113 2.38685 5.24118 2.1602 5.38462C1.88829 5.5567 1.66434 5.79487 1.5091 6.07673C1.35386 6.35868 1.2724 6.67561 1.27239 6.99747L1.27612 7.118C1.29383 7.39808 1.37327 7.6715 1.5091 7.91821C1.66433 8.2001 1.88829 8.43822 2.1602 8.61032C2.38684 8.75375 2.49913 9.02382 2.44102 9.28566C2.37138 9.59937 2.38205 9.92588 2.47209 10.2344C2.56211 10.5427 2.72875 10.8232 2.95607 11.0501C3.18353 11.2771 3.46501 11.4434 3.77368 11.5328C4.08219 11.6221 4.40835 11.6323 4.72175 11.562L4.81992 11.5477C5.04899 11.5328 5.2717 11.643 5.39771 11.841L5.46543 11.9404C5.6303 12.1668 5.8435 12.3544 6.08982 12.4896C6.37124 12.6441 6.68704 12.725 7.00808 12.7251C7.32921 12.7251 7.64546 12.6442 7.92695 12.4896C8.20839 12.3351 8.4461 12.1119 8.61844 11.841L8.67809 11.7621C8.82949 11.5901 9.06446 11.5107 9.29316 11.5614L9.4112 11.5838C9.68811 11.6272 9.97185 11.6092 10.2419 11.5304C10.5503 11.4403 10.8313 11.2738 11.0582 11.0464C11.2851 10.819 11.451 10.5379 11.5403 10.2294C11.6297 9.92074 11.6398 9.59423 11.5695 9.28069C11.511 9.01955 11.6218 8.74952 11.8473 8.60535C12.1172 8.43276 12.3395 8.19488 12.4934 7.91386C12.6472 7.63292 12.7276 7.31775 12.7276 6.99747ZM14 6.99747C14 7.53144 13.8657 8.05685 13.6092 8.52521C13.4213 8.86845 13.1716 9.17216 12.8749 9.42358C12.9086 9.81255 12.8717 10.2055 12.7624 10.5829C12.6134 11.0973 12.3368 11.5663 11.9585 11.9454C11.5802 12.3243 11.1124 12.6017 10.5985 12.7518C10.2214 12.8619 9.82819 12.8996 9.43916 12.8667C9.18763 13.165 8.88304 13.4159 8.53892 13.6048C8.0698 13.8624 7.54323 13.9975 7.00808 13.9975C6.47293 13.9974 5.94633 13.8624 5.47723 13.6048C5.13335 13.416 4.82904 13.1654 4.57762 12.8674C4.18906 12.9009 3.79648 12.8641 3.41954 12.7549C2.90514 12.6059 2.43679 12.3292 2.05769 11.951C1.67864 11.5727 1.40072 11.105 1.25064 10.591C1.14064 10.2141 1.10232 9.82107 1.13508 9.43228C0.835876 9.18086 0.584185 8.87591 0.394515 8.53142C0.168169 8.12024 0.0357075 7.66493 0.00621283 7.19814L0 6.99747C1.04334e-05 6.46105 0.135817 5.93343 0.394515 5.46352C0.584262 5.11889 0.835715 4.81352 1.13508 4.56204C1.10244 4.17357 1.14076 3.78115 1.25064 3.40459C1.40071 2.89046 1.67858 2.42229 2.05769 2.04398C2.43677 1.66573 2.90517 1.38901 3.41954 1.24004C3.79685 1.13078 4.18993 1.09328 4.57886 1.12696C4.8302 0.830423 5.13416 0.581088 5.47723 0.393229C5.94555 0.136804 6.47104 0.00246197 7.00497 0.00244141L7.20502 0.00865424C7.6696 0.0379095 8.12297 0.168902 8.53271 0.393229C8.87577 0.581068 9.17973 0.83045 9.43108 1.12696C9.82084 1.09299 10.2148 1.13044 10.5929 1.24004C11.1081 1.38938 11.5773 1.66655 11.9566 2.04584C12.3359 2.42513 12.613 2.89439 12.7624 3.40956C12.872 3.78763 12.9088 4.18164 12.8749 4.57136C13.1716 4.82277 13.4213 5.12651 13.6092 5.46973C13.8656 5.93807 14 6.46352 14 6.99747Z" fill="white"/>
<path d="M8.51236 5.23178C8.76224 5.02798 9.1306 5.04235 9.36352 5.27527C9.59644 5.50819 9.61081 5.87655 9.40701 6.12643L9.36352 6.17489L6.81874 8.71967C6.58582 8.95259 6.21746 8.96696 5.96758 8.76316L5.91912 8.71967L4.64673 7.44728L4.60324 7.39882C4.39944 7.14894 4.41381 6.78058 4.64673 6.54766C4.87965 6.31474 5.24801 6.30037 5.49789 6.50417L5.54635 6.54766L6.36893 7.37024L8.4639 5.27527L8.51236 5.23178Z" fill="white"/>
</svg>
