<svg width="18" height="18" viewBox="0 0 18 18" fill="none" xmlns="http://www.w3.org/2000/svg">
<path d="M16.3636 7.36364C16.3636 6.91177 15.9973 6.54545 15.5455 6.54545H7.36364C6.91177 6.54545 6.54545 6.91177 6.54545 7.36364V15.5455C6.54545 15.9973 6.91177 16.3636 7.36364 16.3636H15.5455C15.9973 16.3636 16.3636 15.9973 16.3636 15.5455V7.36364ZM11.4545 2.45455C11.4545 2.00641 11.0845 1.63636 10.6364 1.63636H2.45455C2.00641 1.63636 1.63636 2.00641 1.63636 2.45455V10.6364C1.63636 11.0845 2.00641 11.4545 2.45455 11.4545C2.90641 11.4545 3.27273 11.8209 3.27273 12.2727C3.27273 12.7246 2.90641 13.0909 2.45455 13.0909C1.10268 13.0909 0 11.9882 0 10.6364V2.45455C0 1.10268 1.10268 0 2.45455 0H10.6364C11.9882 0 13.0909 1.10268 13.0909 2.45455C13.0909 2.90641 12.7246 3.27273 12.2727 3.27273C11.8209 3.27273 11.4545 2.90641 11.4545 2.45455ZM18 15.5455C18 16.9011 16.9011 18 15.5455 18H7.36364C6.00803 18 4.90909 16.9011 4.90909 15.5455V7.36364C4.90909 6.00803 6.00803 4.90909 7.36364 4.90909H15.5455C16.9011 4.90909 18 6.00803 18 7.36364V15.5455Z" fill="white"/>
</svg>
