<svg width="24" height="24" viewBox="0 0 24 24" fill="none" xmlns="http://www.w3.org/2000/svg">
<path d="M21.8182 9.81818C21.8182 9.21569 21.3298 8.72727 20.7273 8.72727H9.81818C9.21569 8.72727 8.72727 9.21569 8.72727 9.81818V20.7273C8.72727 21.3298 9.21569 21.8182 9.81818 21.8182H20.7273C21.3298 21.8182 21.8182 21.3298 21.8182 20.7273V9.81818ZM15.2727 3.27273C15.2727 2.67522 14.7793 2.18182 14.1818 2.18182H3.27273C2.67522 2.18182 2.18182 2.67522 2.18182 3.27273V14.1818C2.18182 14.7793 2.67522 15.2727 3.27273 15.2727C3.87522 15.2727 4.36364 15.7611 4.36364 16.3636C4.36364 16.9661 3.87522 17.4545 3.27273 17.4545C1.47023 17.4545 0 15.9843 0 14.1818V3.27273C0 1.47023 1.47023 0 3.27273 0H14.1818C15.9843 0 17.4545 1.47023 17.4545 3.27273C17.4545 3.87522 16.9661 4.36364 16.3636 4.36364C15.7611 4.36364 15.2727 3.87522 15.2727 3.27273ZM24 20.7273C24 22.5348 22.5348 24 20.7273 24H9.81818C8.0107 24 6.54545 22.5348 6.54545 20.7273V9.81818C6.54545 8.0107 8.0107 6.54545 9.81818 6.54545H20.7273C22.5348 6.54545 24 8.0107 24 9.81818V20.7273Z" fill="white"/>
</svg>
