<svg width="14" height="14" viewBox="0 0 14 14" fill="none" xmlns="http://www.w3.org/2000/svg">
<path d="M12.7273 5.72727C12.7273 5.37582 12.4424 5.09091 12.0909 5.09091H5.72727C5.37582 5.09091 5.09091 5.37582 5.09091 5.72727V12.0909C5.09091 12.4424 5.37582 12.7273 5.72727 12.7273H12.0909C12.4424 12.7273 12.7273 12.4424 12.7273 12.0909V5.72727ZM8.90909 1.90909C8.90909 1.56054 8.62127 1.27273 8.27273 1.27273H1.90909C1.56054 1.27273 1.27273 1.56054 1.27273 1.90909V8.27273C1.27273 8.62127 1.56054 8.90909 1.90909 8.90909C2.26054 8.90909 2.54545 9.194 2.54545 9.54545C2.54545 9.89691 2.26054 10.1818 1.90909 10.1818C0.857637 10.1818 0 9.32418 0 8.27273V1.90909C0 0.857637 0.857637 0 1.90909 0H8.27273C9.32418 0 10.1818 0.857637 10.1818 1.90909C10.1818 2.26054 9.89691 2.54545 9.54545 2.54545C9.194 2.54545 8.90909 2.26054 8.90909 1.90909ZM14 12.0909C14 13.1453 13.1453 14 12.0909 14H5.72727C4.67291 14 3.81818 13.1453 3.81818 12.0909V5.72727C3.81818 4.67291 4.67291 3.81818 5.72727 3.81818H12.0909C13.1453 3.81818 14 4.67291 14 5.72727V12.0909Z" fill="white"/>
</svg>
