<svg width="14" height="14" viewBox="0 0 14 14" fill="none" xmlns="http://www.w3.org/2000/svg">
<path d="M6.99989 12.052C2.46545 12.052 0.334336 7.15159 0.241003 6.94575C0.210196 6.8705 0.194336 6.78978 0.194336 6.70825C0.194336 6.62673 0.210196 6.54601 0.241003 6.47075C0.334336 6.26492 2.46545 1.3645 6.99989 1.3645C11.5343 1.3645 13.6654 6.26492 13.7588 6.47075C13.7896 6.54601 13.8054 6.62673 13.8054 6.70825C13.8054 6.78978 13.7896 6.8705 13.7588 6.94575C13.6654 7.15159 11.5343 12.052 6.99989 12.052ZM1.42322 6.70825C1.88211 7.61867 3.75656 10.8645 6.99989 10.8645C10.2432 10.8645 12.1177 7.61867 12.5766 6.70825C12.1177 5.79784 10.2432 2.552 6.99989 2.552C3.75656 2.552 1.88211 5.79784 1.42322 6.70825Z" fill="white"/>
<path d="M6.99995 9.28133C6.5 9.28133 6.01128 9.13043 5.59559 8.84772C5.1799 8.565 4.85591 8.16317 4.66459 7.69303C4.47326 7.22289 4.4232 6.70556 4.52074 6.20646C4.61827 5.70737 4.85902 5.24892 5.21254 4.88909C5.56605 4.52926 6.01646 4.28421 6.5068 4.18494C6.99714 4.08566 7.50539 4.13661 7.96729 4.33135C8.42918 4.52609 8.82396 4.85587 9.10172 5.27898C9.37947 5.70209 9.52773 6.19954 9.52773 6.70842C9.52567 7.39015 9.2587 8.04337 8.78509 8.52544C8.31148 9.0075 7.66972 9.27924 6.99995 9.28133ZM6.99995 5.323C6.73074 5.323 6.46759 5.40425 6.24375 5.55648C6.01992 5.70872 5.84546 5.92509 5.74244 6.17824C5.63943 6.43139 5.61247 6.70995 5.66499 6.9787C5.71751 7.24744 5.84714 7.4943 6.0375 7.68805C6.22785 7.88181 6.47038 8.01376 6.73441 8.06721C6.99844 8.12067 7.27211 8.09323 7.52082 7.98837C7.76953 7.88351 7.98211 7.70594 8.13167 7.47811C8.28123 7.25028 8.36106 6.98243 8.36106 6.70842C8.35902 6.34162 8.21496 5.99044 7.96014 5.73107C7.70533 5.47171 7.36031 5.32508 6.99995 5.323Z" fill="white"/>
</svg>
