<svg width="18" height="18" viewBox="0 0 18 18" fill="none" xmlns="http://www.w3.org/2000/svg">
<path d="M9 15.4955C3.17 15.4955 0.43 9.19493 0.31 8.93029C0.270392 8.83353 0.25 8.72975 0.25 8.62493C0.25 8.52011 0.270392 8.41633 0.31 8.31957C0.43 8.05493 3.17 1.75439 9 1.75439C14.83 1.75439 17.57 8.05493 17.69 8.31957C17.7296 8.41633 17.75 8.52011 17.75 8.62493C17.75 8.72975 17.7296 8.83353 17.69 8.93029C17.57 9.19493 14.83 15.4955 9 15.4955ZM1.83 8.62493C2.42 9.79547 4.83 13.9687 9 13.9687C13.17 13.9687 15.58 9.79547 16.17 8.62493C15.58 7.45439 13.17 3.28118 9 3.28118C4.83 3.28118 2.42 7.45439 1.83 8.62493Z" fill="white"/>
<path d="M9 11.933C8.35721 11.933 7.72886 11.739 7.1944 11.3755C6.65994 11.012 6.24338 10.4953 5.99739 9.89086C5.75141 9.2864 5.68705 8.62126 5.81245 7.97957C5.93785 7.33787 6.24738 6.74843 6.70191 6.2858C7.15643 5.82316 7.73552 5.5081 8.36596 5.38046C8.9964 5.25282 9.64986 5.31833 10.2437 5.56871C10.8376 5.81908 11.3452 6.24308 11.7023 6.78709C12.0594 7.33109 12.25 7.97066 12.25 8.62493C12.2474 9.50145 11.9041 10.3413 11.2952 10.9611C10.6863 11.5809 9.86114 11.9303 9 11.933ZM9 6.84368C8.65388 6.84368 8.31554 6.94815 8.02775 7.14388C7.73997 7.3396 7.51567 7.6178 7.38321 7.94328C7.25076 8.26876 7.2161 8.62691 7.28363 8.97244C7.35115 9.31796 7.51782 9.63535 7.76256 9.88447C8.00731 10.1336 8.31913 10.3032 8.65859 10.372C8.99806 10.4407 9.34993 10.4054 9.6697 10.2706C9.98947 10.1358 10.2628 9.90747 10.4551 9.61454C10.6474 9.32162 10.75 8.97723 10.75 8.62493C10.7474 8.15334 10.5622 7.70182 10.2345 7.36835C9.90692 7.03488 9.46332 6.84635 9 6.84368Z" fill="white"/>
</svg>
