<svg width="18" height="18" viewBox="0 0 18 18" fill="none" xmlns="http://www.w3.org/2000/svg">
<path fill-rule="evenodd" clip-rule="evenodd" d="M9.00745 0.149902C4.02656 0.149902 0 4.20615 0 9.22428C0 13.2355 2.57996 16.631 6.15904 17.8327C6.60652 17.9231 6.77043 17.6375 6.77043 17.3972C6.77043 17.1869 6.75568 16.4658 6.75568 15.7145C4.25002 16.2554 3.72824 14.6327 3.72824 14.6327C3.32557 13.5811 2.72893 13.3108 2.72893 13.3108C1.90883 12.7549 2.78867 12.7549 2.78867 12.7549C3.69837 12.815 4.17572 13.6863 4.17572 13.6863C4.98089 15.0684 6.27833 14.6779 6.8003 14.4375C6.87478 13.8515 7.11355 13.4459 7.36706 13.2206C5.36863 13.0102 3.26602 12.229 3.26602 8.74343C3.26602 7.75186 3.6237 6.94061 4.19047 6.30968C4.10105 6.08437 3.7878 5.15273 4.28008 3.9058C4.28008 3.9058 5.04062 3.66538 6.75549 4.83726C7.48969 4.63863 8.24685 4.53758 9.00745 4.53673C9.76799 4.53673 10.5433 4.64201 11.2592 4.83726C12.9743 3.66538 13.7348 3.9058 13.7348 3.9058C14.2271 5.15273 13.9137 6.08437 13.8242 6.30968C14.4059 6.94061 14.7489 7.75186 14.7489 8.74343C14.7489 12.229 12.6463 12.9951 10.6329 13.2206C10.9611 13.506 11.2443 14.0468 11.2443 14.9032C11.2443 16.1201 11.2295 17.0967 11.2295 17.3971C11.2295 17.6375 11.3936 17.9231 11.8409 17.8329C15.42 16.6308 18 13.2355 18 9.22428C18.0147 4.20615 13.9734 0.149902 9.00745 0.149902Z" fill="white"/>
</svg>
