<svg width="14" height="14" viewBox="0 0 14 14" fill="none" xmlns="http://www.w3.org/2000/svg">
<path fill-rule="evenodd" clip-rule="evenodd" d="M7.00579 0.241699C3.13177 0.241699 0 3.39656 0 7.29955C0 10.4194 2.00663 13.0603 4.79036 13.995C5.1384 14.0653 5.26589 13.8432 5.26589 13.6563C5.26589 13.4927 5.25442 12.9318 5.25442 12.3475C3.30557 12.7682 2.89974 11.5061 2.89974 11.5061C2.58655 10.6882 2.1225 10.4779 2.1225 10.4779C1.48465 10.0456 2.16896 10.0456 2.16896 10.0456C2.87651 10.0923 3.24778 10.77 3.24778 10.77C3.87402 11.845 4.88315 11.5413 5.28912 11.3543C5.34705 10.8985 5.53276 10.583 5.72994 10.4078C4.1756 10.2442 2.54023 9.63658 2.54023 6.92555C2.54023 6.15433 2.81844 5.52336 3.25926 5.03264C3.1897 4.8574 2.94606 4.13279 3.32895 3.16295C3.32895 3.16295 3.92048 2.97596 5.25427 3.88742C5.82531 3.73293 6.41422 3.65434 7.00579 3.65368C7.59733 3.65368 8.20034 3.73556 8.75717 3.88742C10.0911 2.97596 10.6826 3.16295 10.6826 3.16295C11.0655 4.13279 10.8217 4.8574 10.7522 5.03264C11.2046 5.52336 11.4714 6.15433 11.4714 6.92555C11.4714 9.63658 9.83599 10.2324 8.27003 10.4078C8.52529 10.6298 8.74555 11.0504 8.74555 11.7165C8.74555 12.6629 8.73408 13.4226 8.73408 13.6562C8.73408 13.8432 8.86171 14.0653 9.2096 13.9952C11.9933 13.0602 14 10.4194 14 7.29955C14.0114 3.39656 10.8682 0.241699 7.00579 0.241699Z" fill="white"/>
</svg>
