<svg width="14" height="14" viewBox="0 0 14 14" fill="none" xmlns="http://www.w3.org/2000/svg">
<g clip-path="url(#clip0_4439_15)">
<g clip-path="url(#clip1_4439_15)">
<path d="M13.16 7.14575C13.16 6.69075 13.1192 6.25325 13.0433 5.83325H7V8.31825H10.4533C10.3017 9.11742 9.84667 9.79408 9.16417 10.2491V11.8649H11.2467C12.46 10.7449 13.16 9.09992 13.16 7.14575Z" fill="#4285F4"/>
<path d="M7.00006 13.4168C8.73256 13.4168 10.1851 12.8451 11.2467 11.8651L9.16423 10.2493C8.59256 10.6343 7.86339 10.8676 7.00006 10.8676C5.33173 10.8676 3.91423 9.74176 3.40673 8.2251H1.27173V9.88176C2.32756 11.9759 4.49173 13.4168 7.00006 13.4168Z" fill="#34A853"/>
<path d="M3.40659 8.21927C3.27825 7.83427 3.20242 7.42593 3.20242 7.0001C3.20242 6.57427 3.27825 6.16593 3.40659 5.78093V4.12427H1.27159C0.834085 4.9876 0.583252 5.96177 0.583252 7.0001C0.583252 8.03843 0.834085 9.0126 1.27159 9.87593L2.93409 8.58093L3.40659 8.21927Z" fill="#FBBC05"/>
<path d="M7.00006 3.13825C7.94506 3.13825 8.78506 3.46492 9.45589 4.09492L11.2934 2.25742C10.1792 1.21909 8.73256 0.583252 7.00006 0.583252C4.49173 0.583252 2.32756 2.02409 1.27173 4.12409L3.40673 5.78075C3.91423 4.26409 5.33173 3.13825 7.00006 3.13825Z" fill="#EA4335"/>
</g>
</g>
<defs>
<clipPath id="clip0_4439_15">
<rect width="14" height="14" fill="white"/>
</clipPath>
<clipPath id="clip1_4439_15">
<rect width="14" height="14" fill="white"/>
</clipPath>
</defs>
</svg>
