<svg width="18" height="18" viewBox="0 0 18 18" fill="none" xmlns="http://www.w3.org/2000/svg">
<g clip-path="url(#clip0_4815_47)">
<path fill-rule="evenodd" clip-rule="evenodd" d="M12.3607 1.5884C12.8979 1.05133 13.6264 0.749661 14.3861 0.749756C15.1457 0.749851 15.8742 1.0517 16.4112 1.5889C16.9483 2.1261 17.25 2.85465 17.2499 3.61428C17.2498 4.3739 16.9479 5.10237 16.4107 5.63944L6.40057 15.6511L6.39969 15.652C6.13889 15.9119 5.81826 16.1039 5.46594 16.2111L2.19885 17.2018C2.00435 17.2603 1.79766 17.265 1.60071 17.2155C1.40375 17.166 1.22387 17.064 1.08014 16.9206C0.936422 16.7771 0.834225 16.5973 0.784392 16.4005C0.73456 16.2036 0.738952 15.9969 0.797103 15.8023L0.798034 15.7992L1.78878 12.5352L1.7894 12.5332C1.89744 12.1808 2.09039 11.8604 2.35128 11.6C2.35149 11.5998 2.35169 11.5996 2.3519 11.5994L12.3607 1.5884ZM13.4212 2.64919C13.4212 2.64923 13.4213 2.64915 13.4212 2.64919L3.41184 12.6608L3.411 12.6616C3.32415 12.7483 3.25986 12.8548 3.22377 12.972C3.22368 12.9723 3.22359 12.9726 3.2235 12.9729L2.43763 15.5619L5.02946 14.776C5.14666 14.7404 5.25334 14.6765 5.34019 14.5901C5.34001 14.5903 5.34036 14.59 5.34019 14.5901L15.3501 4.57875C15.6059 4.32295 15.7498 3.97589 15.7499 3.61409C15.7499 3.25229 15.6062 2.90529 15.3504 2.64943C15.0946 2.39357 14.7477 2.2498 14.3859 2.24976C14.0241 2.24971 13.6771 2.39347 13.4212 2.64919Z" fill="white"/>
<path fill-rule="evenodd" clip-rule="evenodd" d="M10.7197 3.21967C11.0126 2.92678 11.4874 2.92678 11.7803 3.21967L14.7803 6.21967C15.0732 6.51256 15.0732 6.98744 14.7803 7.28033C14.4874 7.57322 14.0126 7.57322 13.7197 7.28033L10.7197 4.28033C10.4268 3.98744 10.4268 3.51256 10.7197 3.21967Z" fill="white"/>
</g>
<defs>
<clipPath id="clip0_4815_47">
<rect width="18" height="18" fill="white"/>
</clipPath>
</defs>
</svg>
