<svg width="24" height="24" viewBox="0 0 24 24" fill="none" xmlns="http://www.w3.org/2000/svg">
<path fill-rule="evenodd" clip-rule="evenodd" d="M16.4809 2.1177C17.1972 1.40161 18.1686 0.999385 19.1814 0.999512C20.1942 0.999639 21.1655 1.40211 21.8816 2.11837C22.5977 2.83464 22.9999 3.80604 22.9998 4.81887C22.9997 5.8317 22.5972 6.803 21.881 7.51909L8.53409 20.8679L8.53292 20.8691C8.18518 21.2158 7.75768 21.4717 7.28792 21.6146L2.9318 22.9356C2.67247 23.0135 2.39688 23.0198 2.13428 22.9538C1.87167 22.8878 1.63182 22.7519 1.44019 22.5606C1.24856 22.3692 1.1123 22.1296 1.04586 21.8671C0.979414 21.6046 0.985269 21.329 1.0628 21.0696L1.06405 21.0654L2.38505 16.7134L2.38587 16.7107C2.52992 16.2409 2.78719 15.8137 3.13504 15.4666C3.13532 15.4663 3.13559 15.466 3.13587 15.4657L16.4809 2.1177ZM17.895 3.53209C17.8949 3.53214 17.895 3.53203 17.895 3.53209L4.54912 16.8809L4.548 16.882C4.43219 16.9975 4.34648 17.1396 4.29835 17.2959C4.29824 17.2963 4.29812 17.2967 4.298 17.297L3.25017 20.7491L6.70595 19.7012C6.86222 19.6536 7.00446 19.5686 7.12025 19.4534C7.12001 19.4536 7.12048 19.4531 7.12025 19.4534L20.4668 6.10484C20.8079 5.76377 20.9998 5.30102 20.9998 4.81862C20.9999 4.33622 20.8083 3.87356 20.4672 3.53241C20.1262 3.19126 19.6636 2.99957 19.1812 2.99951C18.6988 2.99945 18.2361 3.19113 17.895 3.53209Z" fill="white"/>
<path fill-rule="evenodd" clip-rule="evenodd" d="M14.2929 4.29289C14.6834 3.90237 15.3166 3.90237 15.7071 4.29289L19.7071 8.29289C20.0976 8.68342 20.0976 9.31658 19.7071 9.70711C19.3166 10.0976 18.6834 10.0976 18.2929 9.70711L14.2929 5.70711C13.9024 5.31658 13.9024 4.68342 14.2929 4.29289Z" fill="white"/>
</svg>
