<svg width="14" height="14" viewBox="0 0 14 14" fill="none" xmlns="http://www.w3.org/2000/svg">
<g clip-path="url(#clip0_4815_48)">
<path fill-rule="evenodd" clip-rule="evenodd" d="M9.61379 1.23528C10.0316 0.817564 10.5983 0.582934 11.1891 0.583008C11.7799 0.583082 12.3465 0.817854 12.7642 1.23568C13.1819 1.6535 13.4166 2.22015 13.4165 2.81097C13.4164 3.40179 13.1816 3.96838 12.7638 4.38609L4.97814 12.1729L4.97745 12.1736C4.77461 12.3758 4.52523 12.5251 4.2512 12.6085L1.71014 13.379C1.55886 13.4245 1.3981 13.4282 1.24491 13.3897C1.09173 13.3512 0.951816 13.2719 0.840031 13.1603C0.728247 13.0487 0.64876 12.9089 0.610002 12.7558C0.571243 12.6026 0.574659 12.4419 0.619887 12.2905L0.620612 12.2881L1.39119 9.74947L1.39167 9.7479C1.47571 9.47383 1.62578 9.2246 1.82869 9.02213C1.82885 9.02197 1.82901 9.02181 1.82917 9.02165L9.61379 1.23528ZM10.4386 2.06034C10.4386 2.06038 10.4387 2.06031 10.4386 2.06034L2.65357 9.84716L2.65292 9.84781C2.58537 9.91517 2.53536 9.99806 2.50729 10.0892C2.50722 10.0895 2.50716 10.0897 2.50709 10.0899L1.89585 12.1036L3.91172 11.4923C4.00288 11.4646 4.08585 11.415 4.1534 11.3478C4.15326 11.3479 4.15353 11.3476 4.1534 11.3478L11.9389 3.56112C12.1379 3.36216 12.2498 3.09222 12.2498 2.81082C12.2498 2.52942 12.1381 2.25954 11.9391 2.06053C11.7402 1.86153 11.4703 1.74971 11.1889 1.74967C10.9076 1.74964 10.6376 1.86145 10.4386 2.06034Z" fill="white"/>
<path fill-rule="evenodd" clip-rule="evenodd" d="M8.3376 2.50411C8.56541 2.2763 8.93475 2.2763 9.16256 2.50411L11.4959 4.83744C11.7237 5.06525 11.7237 5.43459 11.4959 5.6624C11.2681 5.8902 10.8987 5.8902 10.6709 5.6624L8.3376 3.32906C8.1098 3.10126 8.1098 2.73191 8.3376 2.50411Z" fill="white"/>
</g>
<defs>
<clipPath id="clip0_4815_48">
<rect width="14" height="14" fill="white"/>
</clipPath>
</defs>
</svg>
