<svg width="18" height="18" viewBox="0 0 18 18" fill="none" xmlns="http://www.w3.org/2000/svg">
<path d="M10.05 1.50011H4.5C4.10218 1.50011 3.72064 1.65815 3.43934 1.93945C3.15804 2.22076 3 2.60229 3 3.00011V15.0001C3 15.3979 3.15804 15.7795 3.43934 16.0608C3.72064 16.3421 4.10218 16.5001 4.5 16.5001H13.5C13.8978 16.5001 14.2794 16.3421 14.5607 16.0608C14.842 15.7795 15 15.3979 15 15.0001V9.45011M1.5 4.50011H4.5M1.5 7.50011H4.5M1.5 10.5001H4.5M1.5 13.5001H4.5M16.0335 4.21961C16.3323 3.92085 16.5001 3.51563 16.5001 3.09311C16.5001 2.67059 16.3323 2.26538 16.0335 1.96661C15.7347 1.66785 15.3295 1.5 14.907 1.5C14.4845 1.5 14.0793 1.66785 13.7805 1.96661L10.023 5.72561C9.84469 5.90383 9.71417 6.12411 9.6435 6.36611L9.01575 8.51861C8.99693 8.58315 8.9958 8.65156 9.01248 8.71668C9.02917 8.7818 9.06305 8.84124 9.11059 8.88878C9.15812 8.93631 9.21756 8.9702 9.28268 8.98688C9.3478 9.00356 9.41621 9.00243 9.48075 8.98361L11.6333 8.35586C11.8752 8.2852 12.0955 8.15468 12.2738 7.97636L16.0335 4.21961Z" stroke="white" stroke-width="1.45833" stroke-linecap="round" stroke-linejoin="round"/>
</svg>
