<svg width="14" height="14" viewBox="0 0 14 14" fill="none" xmlns="http://www.w3.org/2000/svg">
<g clip-path="url(#clip0_5191_86)">
<path fill-rule="evenodd" clip-rule="evenodd" d="M7.00011 5.34393C6.52518 5.34393 6.06971 5.53259 5.73389 5.86841C5.39807 6.20423 5.20941 6.6597 5.20941 7.13463C5.20941 7.36978 5.25573 7.60264 5.34572 7.8199C5.43571 8.03715 5.56761 8.23456 5.73389 8.40084C5.90017 8.56712 6.09758 8.69902 6.31484 8.78901C6.53209 8.87901 6.76495 8.92532 7.00011 8.92532C7.23526 8.92532 7.46812 8.87901 7.68537 8.78901C7.90263 8.69902 8.10004 8.56712 8.26632 8.40084C8.4326 8.23456 8.5645 8.03715 8.65449 7.8199C8.74448 7.60264 8.7908 7.36978 8.7908 7.13463C8.7908 6.6597 8.60214 6.20423 8.26632 5.86841C7.9305 5.53259 7.47503 5.34393 7.00011 5.34393ZM5.04323 5.17775C5.56223 4.65876 6.26613 4.36719 7.00011 4.36719C7.73408 4.36719 8.43799 4.65876 8.95698 5.17775C9.47598 5.69675 9.76754 6.40066 9.76754 7.13463C9.76754 7.49805 9.69596 7.85792 9.55689 8.19368C9.41781 8.52944 9.21396 8.83452 8.95698 9.0915C8.7 9.34848 8.39492 9.55233 8.05916 9.69141C7.7234 9.83048 7.36353 9.90207 7.00011 9.90207C6.63668 9.90207 6.27681 9.83048 5.94105 9.69141C5.60529 9.55233 5.30021 9.34848 5.04323 9.0915C4.78625 8.83452 4.5824 8.52944 4.44332 8.19368C4.30425 7.85792 4.23267 7.49805 4.23267 7.13463C4.23267 6.40066 4.52423 5.69675 5.04323 5.17775Z" fill="white"/>
<path fill-rule="evenodd" clip-rule="evenodd" d="M4.40502 0.665238C4.51161 0.61844 4.66695 0.565044 4.85114 0.589309L4.85398 0.589684C5.05467 0.617323 5.20338 0.732754 5.28904 0.804908C5.37945 0.881075 5.48345 0.984819 5.59409 1.0952L5.60874 1.10981C5.60878 1.10985 5.60869 1.10976 5.60874 1.10981C6.36891 1.86723 7.6324 1.86717 8.39173 1.10999C8.39175 1.10997 8.39171 1.11001 8.39173 1.10999L8.40111 1.1006C8.51393 0.987777 8.61996 0.881737 8.71234 0.804083C8.79839 0.731751 8.94817 0.615919 9.15017 0.589309C9.33499 0.564961 9.49069 0.619038 9.59628 0.665401C9.69236 0.707586 9.80104 0.76899 9.90647 0.828554C9.91304 0.832262 9.91959 0.835964 9.92613 0.839653L9.92728 0.840307L11.0503 1.4783L11.0658 1.4871C11.1752 1.54915 11.2874 1.61275 11.3756 1.67551C11.4704 1.74297 11.5989 1.85056 11.6726 2.0247C11.753 2.21472 11.727 2.40636 11.7079 2.51721C11.687 2.63841 11.6482 2.78711 11.6065 2.94694L11.603 2.96019C11.345 3.95423 11.975 5.02294 12.9946 5.2981C12.9947 5.29812 12.9945 5.29808 12.9946 5.2981L13.0056 5.30107C13.1629 5.34323 13.31 5.38267 13.4249 5.42436C13.5308 5.46278 13.7073 5.53473 13.8318 5.6967C13.9469 5.84648 13.9771 6.01095 13.989 6.12659C14.0001 6.23357 14 6.36158 14 6.48611V7.78295C14 7.90745 14.0001 8.03533 13.989 8.14225C13.9771 8.25841 13.9467 8.42167 13.8328 8.57094L13.8318 8.57233C13.7073 8.73423 13.5309 8.80621 13.4253 8.84462C13.3113 8.88605 13.1655 8.92542 13.0097 8.96751L12.995 8.97148C11.9754 9.24651 11.3458 10.3152 11.6043 11.3086L11.608 11.323C11.6494 11.4828 11.6878 11.631 11.7085 11.7518C11.7276 11.8633 11.7525 12.0521 11.6747 12.2402C11.6017 12.4164 11.4725 12.5252 11.3771 12.5932C11.2882 12.6565 11.1751 12.7205 11.0651 12.7827L11.0504 12.791L9.92867 13.428L9.915 13.4358C9.80673 13.4974 9.6955 13.5606 9.59683 13.6039C9.49033 13.6506 9.335 13.704 9.15082 13.6797L9.14797 13.6793C8.94729 13.6517 8.79857 13.5363 8.71292 13.4641C8.62249 13.388 8.51849 13.2842 8.40784 13.1738L8.39308 13.1591C7.63307 12.4006 6.36855 12.4005 5.60848 13.1588C5.60843 13.1589 5.60853 13.1588 5.60848 13.1588L5.59889 13.1684C5.48607 13.2813 5.38004 13.3873 5.28766 13.4649C5.20161 13.5373 5.05183 13.6531 4.84983 13.6797C4.66564 13.704 4.5103 13.6506 4.40372 13.6038C4.30467 13.5603 4.19317 13.4967 4.08476 13.4349L4.07309 13.4283L2.94888 12.7909L2.93158 12.7811C2.82288 12.7191 2.71157 12.6557 2.62408 12.5934C2.52953 12.526 2.40109 12.4184 2.32744 12.2443C2.24704 12.0543 2.273 11.8627 2.29213 11.7518C2.31303 11.6306 2.35182 11.4819 2.3935 11.3221L2.39698 11.3088C2.65493 10.3154 2.02497 9.2466 1.00519 8.97152L0.990329 8.96751C0.834458 8.92542 0.68868 8.88605 0.574733 8.84462C0.469061 8.80621 0.29269 8.73423 0.168244 8.57233C0.0531221 8.42256 0.0228531 8.25808 0.0109543 8.14245C-5.37987e-05 8.03546 -2.50772e-05 7.90745 2.82887e-06 7.78292C4.22611e-06 7.77667 5.62335e-06 7.77042 5.62335e-06 7.76419V6.50484C5.62335e-06 6.4986 4.22611e-06 6.49235 2.82887e-06 6.48609C-2.51936e-05 6.36159 -5.39539e-05 6.23371 0.0109594 6.12678C0.0229236 6.01062 0.0532909 5.84737 0.167179 5.6981C0.291952 5.53456 0.469365 5.46237 0.575441 5.42399C0.688704 5.38301 0.833489 5.34419 0.98781 5.30282L1.00525 5.29815C2.0256 5.02305 2.65562 3.95424 2.39762 2.96019C2.39614 2.95448 2.39459 2.9485 2.39312 2.94282C2.3521 2.78442 2.31392 2.63702 2.29329 2.51698C2.27447 2.40742 2.24835 2.21621 2.32819 2.02665C2.40131 1.85171 2.52981 1.74359 2.62489 1.67582C2.71374 1.6125 2.82679 1.54856 2.93681 1.48634C2.94162 1.48362 2.94643 1.4809 2.95123 1.47818C2.95133 1.47813 2.95114 1.47823 2.95123 1.47818L4.07345 0.841284C4.07358 0.841211 4.07371 0.841138 4.07383 0.841065C4.07791 0.838741 4.08199 0.836413 4.08608 0.834083C4.19448 0.772286 4.30598 0.708726 4.40502 0.665238ZM4.70907 1.60445C4.66713 1.62724 4.61864 1.6548 4.55707 1.6899L3.43249 2.32813C3.36951 2.36377 3.31992 2.39187 3.27788 2.41677C3.27517 2.41838 3.27251 2.41996 3.26993 2.4215C3.28526 2.49075 3.30895 2.58314 3.34311 2.71509C3.73999 4.24485 2.7799 5.83131 1.25951 6.24122L1.25889 6.24138C1.13218 6.27537 1.04342 6.29939 0.977883 6.3194C0.977821 6.32218 0.977762 6.32502 0.977706 6.32793C0.976768 6.37645 0.976749 6.43296 0.976749 6.50484V7.76419C0.976749 7.83607 0.976768 7.89263 0.977706 7.94121C0.977761 7.94408 0.97782 7.9469 0.977881 7.94965C1.0436 7.96988 1.13262 7.9942 1.25957 8.02848M4.70907 1.60445C4.71106 1.60337 4.71301 1.60231 4.71494 1.60127ZM4.71494 1.60127C4.76414 1.6472 4.82811 1.71074 4.91913 1.80152C6.06034 2.93883 7.94078 2.93913 9.08151 1.80153L9.08198 1.80106C9.17274 1.7103 9.23666 1.64676 9.28575 1.60096C9.28815 1.60225 9.2906 1.60357 9.2931 1.60492C9.33463 1.62737 9.38218 1.65422 9.44249 1.68826L9.44481 1.68957L9.44596 1.69022L10.5681 2.32771C10.6309 2.36337 10.6807 2.39165 10.7228 2.41661C10.7257 2.41831 10.7285 2.41997 10.7312 2.4216C10.7158 2.49068 10.692 2.58284 10.6578 2.71426L10.6576 2.71481C10.2606 4.24459 11.2206 5.83123 12.7404 6.2412L12.7411 6.24138C12.8677 6.27533 12.9565 6.29946 13.0221 6.31956C13.0222 6.32226 13.0222 6.32501 13.0223 6.32783C13.0232 6.3764 13.0233 6.43296 13.0233 6.50484V7.76419C13.0233 7.83607 13.0232 7.89259 13.0223 7.94111C13.0222 7.94402 13.0222 7.94687 13.0221 7.94965C12.9564 7.96989 12.8673 7.99422 12.7403 8.02853C11.2204 8.43859 10.2611 10.0253 10.659 11.5545L11.1316 11.4315L10.6588 11.5539C10.6931 11.6861 10.7167 11.7784 10.7319 11.8476C10.7294 11.8491 10.7268 11.8507 10.7241 11.8523C10.682 11.8772 10.6324 11.9053 10.5695 11.9409L10.5688 11.9413L9.44619 12.5788C9.3844 12.6139 9.33561 12.6416 9.29351 12.6644C9.29134 12.6656 9.2892 12.6667 9.28711 12.6679C9.23791 12.6219 9.17395 12.5584 9.08293 12.4676C7.94159 11.3286 6.05971 11.3286 4.91837 12.4676L4.91802 12.468C4.82725 12.5587 4.76333 12.6223 4.71424 12.6681C4.71212 12.6669 4.70996 12.6658 4.70776 12.6646C4.66583 12.6418 4.61734 12.6142 4.55576 12.5791L3.43252 11.9423C3.4324 11.9422 3.43228 11.9422 3.43216 11.9421C3.36938 11.9063 3.3199 11.8781 3.2778 11.8531C3.27471 11.8512 3.2717 11.8494 3.26878 11.8477C3.28416 11.7785 3.30793 11.6863 3.34224 11.5548L3.34237 11.5543C3.73948 10.0251 2.77922 8.4385 1.25957 8.02848" fill="white"/>
</g>
<defs>
<clipPath id="clip0_5191_86">
<rect width="14" height="14" fill="white"/>
</clipPath>
</defs>
</svg>
