<svg width="24" height="24" viewBox="0 0 24 24" fill="none" xmlns="http://www.w3.org/2000/svg">
<path fill-rule="evenodd" clip-rule="evenodd" d="M12 9.16099C11.1859 9.16099 10.4051 9.48441 9.82939 10.0601C9.2537 10.6358 8.93028 11.4166 8.93028 12.2308C8.93028 12.6339 9.00968 13.0331 9.16395 13.4055C9.31822 13.7779 9.54434 14.1164 9.82939 14.4014C10.1144 14.6865 10.4529 14.9126 10.8253 15.0668C11.1977 15.2211 11.5969 15.3005 12 15.3005C12.4032 15.3005 12.8023 15.2211 13.1748 15.0668C13.5472 14.9126 13.8856 14.6865 14.1707 14.4014C14.4557 14.1164 14.6819 13.7779 14.8361 13.4055C14.9904 13.0331 15.0698 12.6339 15.0698 12.2308C15.0698 11.4166 14.7464 10.6358 14.1707 10.0601C13.595 9.48441 12.8142 9.16099 12 9.16099ZM8.6454 8.87611C9.53511 7.9864 10.7418 7.48657 12 7.48657C13.2583 7.48657 14.465 7.9864 15.3547 8.87611C16.2444 9.76582 16.7442 10.9725 16.7442 12.2308C16.7442 12.8538 16.6215 13.4707 16.3831 14.0463C16.1447 14.6219 15.7952 15.1449 15.3547 15.5854C14.9141 16.0259 14.3912 16.3754 13.8156 16.6138C13.24 16.8522 12.6231 16.9749 12 16.9749C11.377 16.9749 10.7601 16.8522 10.1845 16.6138C9.60893 16.3754 9.08594 16.0259 8.6454 15.5854C8.20486 15.1449 7.85541 14.6219 7.61699 14.0463C7.37857 13.4707 7.25586 12.8538 7.25586 12.2308C7.25586 10.9725 7.75569 9.76582 8.6454 8.87611Z" fill="white"/>
<path fill-rule="evenodd" clip-rule="evenodd" d="M7.55147 1.14055C7.73418 1.06032 8.00048 0.968787 8.31623 1.01038L8.32111 1.01103C8.66514 1.05841 8.92009 1.25629 9.06692 1.37998C9.22192 1.51055 9.4002 1.6884 9.58988 1.87762L9.61498 1.90267C9.61506 1.90274 9.61491 1.90259 9.61498 1.90267C10.9181 3.2011 13.0841 3.201 14.3858 1.90297C14.3859 1.90294 14.3858 1.90301 14.3858 1.90297L14.4019 1.88689C14.5953 1.69347 14.7771 1.51169 14.9354 1.37857C15.083 1.25457 15.3397 1.056 15.686 1.01038C16.0028 0.968643 16.2697 1.06135 16.4508 1.14083C16.6155 1.21314 16.8018 1.31841 16.9825 1.42052C16.9938 1.42688 17.005 1.43322 17.0162 1.43954L17.0182 1.44067L18.9433 2.53436L18.9699 2.54945C19.1575 2.65583 19.3498 2.76486 19.501 2.87245C19.6636 2.98808 19.8838 3.17253 20.0101 3.47105C20.1479 3.7968 20.1034 4.12533 20.0706 4.31536C20.0348 4.52314 19.9683 4.77804 19.8968 5.05203L19.8909 5.07474C19.4486 6.77882 20.5286 8.6109 22.2764 9.08259C22.2766 9.08263 22.2763 9.08256 22.2764 9.08259L22.2954 9.08768C22.565 9.15997 22.8171 9.22758 23.0141 9.29904C23.1957 9.3649 23.4982 9.48825 23.7116 9.76592C23.9089 10.0227 23.9608 10.3046 23.9812 10.5029C24.0001 10.6863 24 10.9057 24 11.1192V13.3423C24 13.5558 24.0001 13.775 23.9812 13.9583C23.9607 14.1574 23.9086 14.4373 23.7134 14.6932L23.7116 14.6956C23.4982 14.9731 23.1959 15.0965 23.0147 15.1623C22.8194 15.2334 22.5695 15.3009 22.3023 15.373L22.2771 15.3798C20.5292 15.8513 19.4499 17.6833 19.893 19.3862L19.8994 19.411C19.9704 19.6849 20.0362 19.939 20.0716 20.1461C20.1044 20.3372 20.1472 20.6609 20.0137 20.9834C19.8886 21.2854 19.6672 21.4718 19.5035 21.5885C19.3512 21.6971 19.1574 21.8067 18.9688 21.9133L18.9436 21.9276L17.0206 23.0196L16.9971 23.0329C16.8115 23.1385 16.6209 23.2469 16.4517 23.3211C16.2691 23.4011 16.0029 23.4927 15.6871 23.4511L15.6822 23.4504C15.3382 23.4031 15.0833 23.2052 14.9364 23.0815C14.7814 22.9509 14.6031 22.7731 14.4134 22.5838L14.3881 22.5586C13.0853 21.2584 10.9175 21.2581 9.61453 22.5581C9.61445 22.5582 9.61462 22.5581 9.61453 22.5581L9.5981 22.5746C9.4047 22.768 9.22293 22.9498 9.06456 23.0829C8.91705 23.2069 8.66029 23.4055 8.314 23.4511C7.99825 23.4927 7.73195 23.4012 7.54923 23.3209C7.37943 23.2464 7.18829 23.1374 7.00244 23.0315L6.98244 23.0201L5.05523 21.9274L5.02557 21.9105C4.83923 21.8044 4.6484 21.6957 4.49842 21.5888C4.33634 21.4733 4.11615 21.2889 3.98989 20.9904C3.85208 20.6647 3.89657 20.3361 3.92936 20.1461C3.9652 19.9384 4.03168 19.6835 4.10315 19.4095L4.10911 19.3866C4.55132 17.6838 3.47138 15.8515 1.72318 15.3799L1.69771 15.373C1.4305 15.3009 1.18059 15.2334 0.985256 15.1624C0.804104 15.0965 0.501755 14.9731 0.288419 14.6956C0.0910664 14.4388 0.0391768 14.1569 0.0187789 13.9586C-9.22263e-05 13.7752 -4.29894e-05 13.5558 4.84949e-06 13.3423C7.24476e-06 13.3316 9.64003e-06 13.3209 9.64003e-06 13.3102V11.1513C9.64003e-06 11.1406 7.24476e-06 11.1299 4.84949e-06 11.1191C-4.3189e-05 10.9057 -9.24925e-05 10.6865 0.0187876 10.5032C0.0392976 10.3041 0.0913558 10.0242 0.286592 9.7683C0.50049 9.48795 0.804626 9.3642 0.986469 9.29841C1.18064 9.22815 1.42884 9.16161 1.69339 9.09069L1.72328 9.08267C3.47246 8.61109 4.55249 6.77884 4.1102 5.07474C4.10767 5.06496 4.10502 5.05471 4.10249 5.04497C4.03217 4.77343 3.96672 4.52074 3.93136 4.31496C3.89908 4.12715 3.85432 3.79936 3.99118 3.47439C4.11652 3.1745 4.33682 2.98915 4.49981 2.87298C4.65212 2.76442 4.84592 2.65482 5.03452 2.54815C5.04278 2.54349 5.05102 2.53882 5.05926 2.53417C5.05942 2.53408 5.0591 2.53426 5.05926 2.53417L6.98306 1.44234C6.98328 1.44222 6.9835 1.44209 6.98372 1.44196C6.99071 1.43798 6.99771 1.43399 7.00471 1.43C7.19055 1.32406 7.38168 1.2151 7.55147 1.14055ZM8.07268 2.75063C8.00079 2.78969 7.91767 2.83695 7.81211 2.8971L5.88428 3.99122C5.7763 4.05231 5.69129 4.10049 5.61923 4.14318C5.61457 4.14594 5.61003 4.14864 5.60559 4.15128C5.63188 4.27 5.67248 4.42837 5.73105 4.65457C6.41141 7.27703 4.76554 9.99667 2.15915 10.6994L2.15809 10.6996C1.94088 10.7579 1.78872 10.7991 1.67637 10.8334C1.67626 10.8382 1.67616 10.843 1.67607 10.848C1.67446 10.9312 1.67443 11.0281 1.67443 11.1513V13.3102C1.67443 13.4334 1.67446 13.5304 1.67607 13.6136C1.67616 13.6186 1.67626 13.6234 1.67637 13.6281C1.78903 13.6628 1.94164 13.7045 2.15926 13.7633M8.07268 2.75063C8.0761 2.74877 8.07945 2.74695 8.08276 2.74517ZM8.08276 2.74517C8.1671 2.8239 8.27676 2.93284 8.43279 3.08846C10.3892 5.03813 13.6128 5.03865 15.5683 3.08848L15.5691 3.08767C15.7247 2.93208 15.8343 2.82316 15.9184 2.74464C15.9225 2.74685 15.9267 2.74911 15.931 2.75143C16.0022 2.78992 16.0837 2.83595 16.1871 2.89431L16.1911 2.89654L16.1931 2.89767L18.1167 3.9905C18.2244 4.05162 18.3098 4.10012 18.3819 4.1429C18.3869 4.14581 18.3916 4.14866 18.3963 4.15145C18.3699 4.26988 18.3292 4.42786 18.2704 4.65315L18.2702 4.65409C17.5895 7.27658 19.2353 9.99653 21.8407 10.6993L21.8419 10.6996C22.0589 10.7578 22.2112 10.7992 22.3236 10.8337C22.3237 10.8383 22.3238 10.843 22.3239 10.8478C22.3255 10.9311 22.3256 11.0281 22.3256 11.1513V13.3102C22.3256 13.4334 22.3255 13.5303 22.3239 13.6135C22.3238 13.6185 22.3237 13.6233 22.3236 13.6281C22.2109 13.6628 22.0582 13.7045 21.8405 13.7633C19.235 14.4663 17.5905 17.1864 18.2726 19.8079L19.0828 19.5971L18.2723 19.8069C18.331 20.0334 18.3715 20.1918 18.3976 20.3103C18.3932 20.3129 18.3887 20.3156 18.3841 20.3183C18.3121 20.361 18.227 20.4092 18.1191 20.4703L18.1179 20.4709L16.1935 21.5637C16.0875 21.6239 16.0039 21.6714 15.9317 21.7105C15.928 21.7125 15.9244 21.7145 15.9208 21.7165C15.8364 21.6377 15.7268 21.5288 15.5707 21.3732C13.6142 19.4206 10.3881 19.4206 8.4315 21.3732L8.43089 21.3738C8.27529 21.5294 8.1657 21.6383 8.08155 21.7169C8.07792 21.7149 8.07422 21.7129 8.07045 21.7108C7.99856 21.6718 7.91544 21.6245 7.80988 21.5644L5.88432 20.4727C5.88411 20.4725 5.88391 20.4724 5.8837 20.4723C5.77608 20.411 5.69126 20.3626 5.61909 20.3197C5.61379 20.3165 5.60863 20.3134 5.60361 20.3104C5.63 20.1919 5.67074 20.0339 5.72956 19.8083L5.72978 19.8075C6.41053 17.186 4.76438 14.4661 2.15926 13.7633" fill="white"/>
</svg>
