<svg width="14" height="14" viewBox="0 0 14 14" fill="none" xmlns="http://www.w3.org/2000/svg">
<path fill-rule="evenodd" clip-rule="evenodd" d="M1.16675 3.50008C1.16675 3.17792 1.42792 2.91675 1.75008 2.91675H12.2501C12.5722 2.91675 12.8334 3.17792 12.8334 3.50008C12.8334 3.82225 12.5722 4.08341 12.2501 4.08341H1.75008C1.42792 4.08341 1.16675 3.82225 1.16675 3.50008Z" fill="white"/>
<path fill-rule="evenodd" clip-rule="evenodd" d="M2.91659 2.91675C3.23875 2.91675 3.49992 3.17792 3.49992 3.50008V11.6667C3.49992 11.7687 3.55677 11.9195 3.69365 12.0564C3.83053 12.1932 3.9813 12.2501 4.08325 12.2501H9.91658C10.0185 12.2501 10.1693 12.1932 10.3062 12.0564C10.4431 11.9195 10.4999 11.7687 10.4999 11.6667V3.50008C10.4999 3.17792 10.7611 2.91675 11.0833 2.91675C11.4054 2.91675 11.6666 3.17792 11.6666 3.50008V11.6667C11.6666 12.1481 11.4318 12.5807 11.1311 12.8813C10.8305 13.1819 10.398 13.4167 9.91658 13.4167H4.08325C3.60187 13.4167 3.16931 13.1819 2.86869 12.8813C2.56807 12.5807 2.33325 12.1481 2.33325 11.6667V3.50008C2.33325 3.17792 2.59442 2.91675 2.91659 2.91675Z" fill="white"/>
<path fill-rule="evenodd" clip-rule="evenodd" d="M5.44365 1.94365C5.30677 2.08053 5.24992 2.2313 5.24992 2.33325V3.49992C5.24992 3.82208 4.98875 4.08325 4.66659 4.08325C4.34442 4.08325 4.08325 3.82208 4.08325 3.49992V2.33325C4.08325 1.85187 4.31807 1.41931 4.61869 1.11869C4.91931 0.818071 5.35187 0.583252 5.83325 0.583252H8.16659C8.64797 0.583252 9.08053 0.818071 9.38115 1.11869C9.68177 1.41931 9.91659 1.85187 9.91659 2.33325V3.49992C9.91659 3.82208 9.65542 4.08325 9.33325 4.08325C9.01109 4.08325 8.74992 3.82208 8.74992 3.49992V2.33325C8.74992 2.2313 8.69307 2.08053 8.55619 1.94365C8.41931 1.80677 8.26853 1.74992 8.16659 1.74992H5.83325C5.7313 1.74992 5.58053 1.80677 5.44365 1.94365Z" fill="white"/>
<path fill-rule="evenodd" clip-rule="evenodd" d="M5.83333 5.83325C6.1555 5.83325 6.41667 6.09442 6.41667 6.41659V9.91658C6.41667 10.2388 6.1555 10.4999 5.83333 10.4999C5.51117 10.4999 5.25 10.2388 5.25 9.91658V6.41659C5.25 6.09442 5.51117 5.83325 5.83333 5.83325Z" fill="white"/>
<path fill-rule="evenodd" clip-rule="evenodd" d="M8.16659 5.83325C8.48875 5.83325 8.74992 6.09442 8.74992 6.41659V9.91658C8.74992 10.2388 8.48875 10.4999 8.16659 10.4999C7.84442 10.4999 7.58325 10.2388 7.58325 9.91658V6.41659C7.58325 6.09442 7.84442 5.83325 8.16659 5.83325Z" fill="white"/>
</svg>
