<svg width="24" height="24" viewBox="0 0 24 24" fill="none" xmlns="http://www.w3.org/2000/svg">
<path fill-rule="evenodd" clip-rule="evenodd" d="M12.055 0.832693C12.0992 0.33059 12.5431 -0.0406208 13.0463 0.00356978C16.043 0.266744 18.831 1.64946 20.859 3.87645C22.8868 6.1033 24.0072 9.01212 23.9999 12.0271C23.9925 15.0421 22.858 17.9454 20.8193 20.1623C18.7805 22.3793 15.9858 23.7484 12.9878 23.9968C12.4844 24.0385 12.0424 23.6652 12.0006 23.1628C11.9588 22.6605 12.333 22.2195 12.8364 22.1778C15.3744 21.9674 17.7425 20.8083 19.4715 18.9282C21.2006 17.0479 22.1644 14.5836 22.1706 12.0227C22.1769 9.46177 21.2251 6.99272 19.5051 5.10397C17.7853 3.21537 15.4229 2.04465 12.8859 1.82185C12.3827 1.77765 12.0107 1.3348 12.055 0.832693Z" fill="white"/>
<path fill-rule="evenodd" clip-rule="evenodd" d="M8.84363 1.2916C9.02724 1.76116 8.79461 2.29035 8.32402 2.47357C6.72737 3.09521 5.31241 4.11185 4.21078 5.4297C3.88721 5.81677 3.31045 5.86882 2.92254 5.54596C2.53464 5.2231 2.48248 4.64759 2.80604 4.26052C4.10484 2.70681 5.77405 1.50705 7.65909 0.773124C8.12967 0.589905 8.66001 0.822035 8.84363 1.2916Z" fill="white"/>
<path fill-rule="evenodd" clip-rule="evenodd" d="M1.7234 7.72656C2.20463 7.87982 2.47023 8.39332 2.31664 8.8735C1.79243 10.5124 1.6891 12.2578 2.01633 13.9476C2.11216 14.4425 1.78779 14.9212 1.29183 15.0169C0.795864 15.1125 0.316116 14.7888 0.220282 14.2939C-0.165052 12.3041 -0.0434208 10.2487 0.573975 8.31851C0.727564 7.83833 1.24218 7.5733 1.7234 7.72656Z" fill="white"/>
<path fill-rule="evenodd" clip-rule="evenodd" d="M2.72516 18.16C3.12303 17.8494 3.69787 17.9195 4.0091 18.3165C5.06902 19.6685 6.45154 20.7293 8.02801 21.4011C8.49257 21.599 8.70836 22.1352 8.50999 22.5988C8.31162 23.0623 7.77421 23.2777 7.30965 23.0797C5.44856 22.2867 3.81778 21.035 2.56829 19.4412C2.25706 19.0441 2.32729 18.4706 2.72516 18.16Z" fill="white"/>
<path fill-rule="evenodd" clip-rule="evenodd" d="M12.1097 14.0489C11.3423 14.0489 10.5862 14.1609 9.88615 14.3755C9.18571 14.5902 8.56315 14.9008 8.04969 15.2808C7.53632 15.6606 7.14853 16.0973 6.89172 16.5561C6.63601 17.0129 6.51213 17.4872 6.51213 17.9551C6.51213 18.4591 6.10263 18.8677 5.5975 18.8677C5.09236 18.8677 4.68286 18.4591 4.68286 17.9551C4.68286 17.1573 4.89587 16.3784 5.29469 15.666C5.69242 14.9554 6.26401 14.3297 6.96007 13.8146C7.65603 13.2996 8.46927 12.9003 9.34902 12.6307C10.2291 12.3609 11.1667 12.2236 12.1097 12.2236C13.0527 12.2236 13.9903 12.3609 14.8704 12.6307C15.7501 12.9003 16.5634 13.2996 17.2593 13.8146C17.9554 14.3297 18.527 14.9554 18.9247 15.666C19.3235 16.3784 19.5365 17.1573 19.5365 17.9551C19.5365 18.4591 19.127 18.8677 18.6219 18.8677C18.1168 18.8677 17.7073 18.4591 17.7073 17.9551C17.7073 17.4872 17.5834 17.0129 17.3277 16.5561C17.0709 16.0973 16.6831 15.6606 16.1697 15.2808C15.6562 14.9008 15.0337 14.5902 14.3332 14.3755C13.6332 14.1609 12.877 14.0489 12.1097 14.0489Z" fill="white"/>
<path fill-rule="evenodd" clip-rule="evenodd" d="M12 4.91612C11.7132 4.91612 11.4292 4.97281 11.164 5.08308C10.8987 5.19336 10.6574 5.35513 10.4539 5.55945C10.2503 5.76377 10.0886 6.00663 9.9781 6.2743C9.86764 6.54199 9.81071 6.82907 9.81071 7.11913C9.81071 7.40918 9.86764 7.69627 9.9781 7.96395C10.0886 8.23162 10.2503 8.47448 10.4539 8.67881C10.6574 8.88312 10.8987 9.0449 11.164 9.15517C11.4292 9.26544 11.7132 9.32213 12 9.32213C12.2867 9.32213 12.5708 9.26544 12.836 9.15517C13.1012 9.0449 13.3426 8.88312 13.5461 8.67881C13.7497 8.47448 13.9114 8.23162 14.0219 7.96395C14.1323 7.69627 14.1893 7.40918 14.1893 7.11913C14.1893 6.82907 14.1323 6.54199 14.0219 6.27431C13.9114 6.00663 13.7497 5.76377 13.5461 5.55945C13.3426 5.35514 13.1012 5.19336 12.836 5.08308C12.5708 4.97281 12.2867 4.91612 12 4.91612ZM16.0185 7.11913C16.0185 7.64738 15.9149 8.17059 15.7134 8.65892C15.5118 9.14727 15.2163 9.59134 14.8434 9.96565C14.4705 10.34 14.0275 10.6372 13.5396 10.8401C13.0516 11.0429 12.5285 11.1474 12 11.1474C11.4715 11.1474 10.9483 11.0429 10.4604 10.8401C9.97243 10.6372 9.52943 10.34 9.15653 9.96565C8.78363 9.59134 8.48812 9.14727 8.2866 8.65892C8.08509 8.17059 7.98145 7.64738 7.98145 7.11912C7.98145 6.59087 8.08509 6.06766 8.28661 5.57933C8.48812 5.09098 8.78363 4.64691 9.15653 4.2726C9.52944 3.89829 9.97244 3.60107 10.4604 3.39819C10.9483 3.19531 11.4715 3.09082 12 3.09082C12.5285 3.09082 13.0516 3.19531 13.5396 3.3982C14.0275 3.60107 14.4705 3.89829 14.8434 4.27261C15.2163 4.64691 15.5118 5.09099 15.7134 5.57933C15.9149 6.06767 16.0185 6.59088 16.0185 7.11913Z" fill="white"/>
</svg>
