<svg width="18" height="18" viewBox="0 0 18 18" fill="none" xmlns="http://www.w3.org/2000/svg">
<path fill-rule="evenodd" clip-rule="evenodd" d="M9.04129 0.62452C9.0745 0.247943 9.40737 -0.0304656 9.78476 0.00267734C12.0323 0.200058 14.1233 1.23709 15.6443 2.90734C17.1652 4.57747 18.0055 6.75909 18 9.02033C17.9945 11.2816 17.1436 13.4591 15.6145 15.1217C14.0854 16.7845 11.9894 17.8113 9.74091 17.9976C9.36336 18.0289 9.03187 17.7489 9.00051 17.3721C8.96915 16.9954 9.2498 16.6646 9.62735 16.6333C11.5309 16.4756 13.3069 15.6062 14.6037 14.1961C15.9005 12.7859 16.6234 10.9377 16.628 9.01701C16.6327 7.09633 15.9189 5.24454 14.6289 3.82798C13.339 2.41153 11.5672 1.53348 9.66448 1.36638C9.28709 1.33324 9.00807 1.0011 9.04129 0.62452Z" fill="white"/>
<path fill-rule="evenodd" clip-rule="evenodd" d="M6.63272 0.9687C6.77043 1.32087 6.59596 1.71776 6.24302 1.85518C5.04553 2.32141 3.98431 3.08389 3.15808 4.07228C2.91541 4.36258 2.48284 4.40161 2.19191 4.15947C1.90098 3.91732 1.86186 3.48569 2.10453 3.19539C3.07863 2.03011 4.33053 1.13029 5.74432 0.579843C6.09726 0.442429 6.49501 0.616526 6.63272 0.9687Z" fill="white"/>
<path fill-rule="evenodd" clip-rule="evenodd" d="M1.29255 5.79492C1.65347 5.90986 1.85267 6.29499 1.73748 6.65512C1.34432 7.8843 1.26682 9.19336 1.51225 10.4607C1.58412 10.8319 1.34085 11.1909 0.968871 11.2627C0.596898 11.3344 0.237087 11.0916 0.165211 10.7205C-0.123789 9.22805 -0.0325656 7.68655 0.430481 6.23888C0.545673 5.87875 0.931635 5.67998 1.29255 5.79492Z" fill="white"/>
<path fill-rule="evenodd" clip-rule="evenodd" d="M2.04387 13.62C2.34227 13.387 2.7734 13.4396 3.00683 13.7374C3.80176 14.7514 4.83865 15.547 6.02101 16.0508C6.36943 16.1992 6.53127 16.6014 6.38249 16.9491C6.23371 17.2967 5.83066 17.4582 5.48224 17.3098C4.08642 16.715 2.86334 15.7762 1.92622 14.5808C1.6928 14.2831 1.74547 13.8529 2.04387 13.62Z" fill="white"/>
<path fill-rule="evenodd" clip-rule="evenodd" d="M9.08233 10.5368C8.50682 10.5368 7.93974 10.6208 7.41467 10.7817C6.88934 10.9427 6.42242 11.1757 6.03733 11.4606C5.6523 11.7455 5.36146 12.073 5.16885 12.4171C4.97707 12.7597 4.88416 13.1155 4.88416 13.4664C4.88416 13.8444 4.57704 14.1509 4.19818 14.1509C3.81933 14.1509 3.51221 13.8444 3.51221 13.4664C3.51221 12.8681 3.67196 12.2839 3.97108 11.7495C4.26938 11.2166 4.69807 10.7473 5.22011 10.361C5.74209 9.97476 6.35202 9.67529 7.01183 9.47306C7.67191 9.27074 8.37505 9.16778 9.08233 9.16778C9.78961 9.16778 10.4928 9.27074 11.1528 9.47306C11.8127 9.67529 12.4226 9.97476 12.9446 10.361C13.4666 10.7473 13.8953 11.2166 14.1936 11.7495C14.4927 12.2839 14.6525 12.8681 14.6525 13.4664C14.6525 13.8444 14.3453 14.1509 13.9665 14.1509C13.5876 14.1509 13.2805 13.8444 13.2805 13.4664C13.2805 13.1155 13.1876 12.7597 12.9958 12.4171C12.8032 12.073 12.5124 11.7455 12.1273 11.4606C11.7422 11.1757 11.2753 10.9427 10.75 10.7817C10.2249 10.6208 9.65784 10.5368 9.08233 10.5368Z" fill="white"/>
<path fill-rule="evenodd" clip-rule="evenodd" d="M8.99999 3.68709C8.78493 3.68709 8.57189 3.72961 8.37298 3.81231C8.17406 3.89502 7.99305 4.01635 7.84039 4.16958C7.68773 4.32283 7.56641 4.50497 7.48357 4.70573C7.40073 4.90649 7.35804 5.1218 7.35804 5.33934C7.35804 5.55688 7.40073 5.7722 7.48357 5.97296C7.56641 6.17372 7.68773 6.35586 7.84039 6.5091C7.99305 6.66234 8.17406 6.78367 8.37298 6.86638C8.57189 6.94908 8.78493 6.9916 8.99999 6.9916C9.21504 6.9916 9.42809 6.94908 9.627 6.86638C9.82592 6.78367 10.0069 6.66234 10.1596 6.5091C10.3122 6.35586 10.4336 6.17372 10.5164 5.97296C10.5993 5.7722 10.6419 5.55688 10.6419 5.33935C10.6419 5.12181 10.5993 4.90649 10.5164 4.70573C10.4336 4.50497 10.3122 4.32283 10.1596 4.16959C10.0069 4.01635 9.82592 3.89502 9.627 3.81231C9.42809 3.72961 9.21505 3.68709 8.99999 3.68709ZM12.0139 5.33935C12.0139 5.73553 11.9362 6.12794 11.785 6.49419C11.6339 6.86045 11.4123 7.1935 11.1326 7.47424C10.8529 7.75497 10.5207 7.97789 10.1547 8.13004C9.78873 8.2822 9.39635 8.36057 8.99999 8.36057C8.60363 8.36057 8.21125 8.2822 7.84528 8.13004C7.47933 7.97789 7.14708 7.75497 6.8674 7.47423C6.58772 7.1935 6.36609 6.86045 6.21495 6.49419C6.06382 6.12794 5.98608 5.73553 5.98608 5.33934C5.98608 4.94315 6.06382 4.55075 6.21495 4.1845C6.36609 3.81824 6.58773 3.48518 6.8674 3.20445C7.14708 2.92371 7.47933 2.7008 7.84528 2.54865C8.21125 2.39648 8.60363 2.31812 8.99999 2.31812C9.39635 2.31812 9.78873 2.39649 10.1547 2.54865C10.5207 2.7008 10.8529 2.92372 11.1326 3.20446C11.4123 3.48519 11.6339 3.81824 11.785 4.1845C11.9362 4.55075 12.0139 4.94316 12.0139 5.33935Z" fill="white"/>
</svg>
