<svg width="14" height="14" viewBox="0 0 14 14" fill="none" xmlns="http://www.w3.org/2000/svg">
<path fill-rule="evenodd" clip-rule="evenodd" d="M7.03212 0.485738C7.05795 0.192844 7.31685 -0.0236955 7.61038 0.00208237C9.35848 0.155601 10.9848 0.962184 12.1678 2.26127C13.3507 3.56026 14.0043 5.25707 14 7.01581C13.9957 8.77456 13.3339 10.4682 12.1447 11.7613C10.9553 13.0546 9.3251 13.8532 7.57627 13.9981C7.28262 14.0225 7.02479 13.8047 7.0004 13.5117C6.97601 13.2186 7.19429 12.9614 7.48795 12.937C8.96848 12.8143 10.3499 12.1382 11.3584 11.0414C12.3671 9.94462 12.9293 8.50709 12.9329 7.01323C12.9366 5.51937 12.3814 4.07909 11.3781 2.97732C10.3748 1.87563 8.99675 1.19271 7.51683 1.06274C7.2233 1.03697 7.00629 0.778631 7.03212 0.485738Z" fill="white"/>
<path fill-rule="evenodd" clip-rule="evenodd" d="M5.1587 0.753478C5.26581 1.02739 5.13011 1.33608 4.8556 1.44296C3.92422 1.80559 3.09883 2.39863 2.4562 3.16737C2.26746 3.39316 1.93102 3.42352 1.70474 3.23519C1.47846 3.04685 1.44803 2.71114 1.63677 2.48535C2.39441 1.57902 3.36811 0.879158 4.46772 0.451034C4.74223 0.344156 5.05159 0.479565 5.1587 0.753478Z" fill="white"/>
<path fill-rule="evenodd" clip-rule="evenodd" d="M1.00532 4.50721C1.28603 4.59661 1.44097 4.89616 1.35137 5.17626C1.04558 6.13228 0.985307 7.15045 1.17619 8.13618C1.2321 8.42487 1.04288 8.70411 0.753567 8.7599C0.464254 8.81568 0.184401 8.62687 0.128498 8.33819C-0.0962801 7.17743 -0.0253288 5.97848 0.334819 4.85252C0.424412 4.57241 0.724605 4.41782 1.00532 4.50721Z" fill="white"/>
<path fill-rule="evenodd" clip-rule="evenodd" d="M1.5896 10.5934C1.82169 10.4122 2.15701 10.4531 2.33856 10.6847C2.95684 11.4733 3.76331 12.0922 4.68293 12.484C4.95392 12.5994 5.07979 12.9123 4.96408 13.1827C4.84836 13.4531 4.53487 13.5787 4.26388 13.4632C3.17824 13.0006 2.22696 12.2704 1.49809 11.3407C1.31654 11.1091 1.35751 10.7745 1.5896 10.5934Z" fill="white"/>
<path fill-rule="evenodd" clip-rule="evenodd" d="M7.06401 8.19528C6.61639 8.19528 6.17533 8.26062 5.76694 8.38579C5.35835 8.51102 4.99519 8.69221 4.69567 8.91384C4.39621 9.13544 4.17 9.39015 4.02019 9.65777C3.87102 9.92425 3.79876 10.2009 3.79876 10.4739C3.79876 10.7679 3.55989 11.0063 3.26523 11.0063C2.97056 11.0063 2.73169 10.7679 2.73169 10.4739C2.73169 10.0085 2.85595 9.55415 3.08859 9.13855C3.3206 8.72408 3.65402 8.35904 4.06006 8.05859C4.46604 7.75818 4.94043 7.52526 5.45362 7.36796C5.96701 7.2106 6.5139 7.13052 7.06401 7.13052C7.61412 7.13052 8.16101 7.21061 8.6744 7.36796C9.18759 7.52526 9.66198 7.75818 10.068 8.05859C10.474 8.35904 10.8074 8.72408 11.0394 9.13855C11.2721 9.55416 11.3963 10.0085 11.3963 10.4739C11.3963 10.7679 11.1575 11.0063 10.8628 11.0063C10.5681 11.0063 10.3293 10.7679 10.3293 10.4739C10.3293 10.2009 10.257 9.92425 10.1078 9.65777C9.95802 9.39015 9.73181 9.13544 9.43235 8.91384C9.13283 8.69221 8.76967 8.51102 8.36108 8.38579C7.95269 8.26062 7.51163 8.19528 7.06401 8.19528Z" fill="white"/>
<path fill-rule="evenodd" clip-rule="evenodd" d="M6.99991 2.86778C6.83264 2.86778 6.66694 2.90085 6.51223 2.96517C6.35752 3.0295 6.21674 3.12387 6.098 3.24305C5.97926 3.36224 5.88491 3.50391 5.82047 3.66005C5.75604 3.8162 5.72284 3.98367 5.72284 4.15287C5.72284 4.32206 5.75604 4.48953 5.82047 4.64568C5.88491 4.80182 5.97926 4.94349 6.098 5.06268C6.21673 5.18186 6.35752 5.27623 6.51223 5.34056C6.66694 5.40488 6.83264 5.43795 6.99991 5.43795C7.16718 5.43795 7.33288 5.40488 7.48759 5.34056C7.6423 5.27623 7.78309 5.18186 7.90182 5.06268C8.02056 4.94349 8.11491 4.80182 8.17935 4.64568C8.24378 4.48953 8.27698 4.32206 8.27698 4.15287C8.27698 3.98367 8.24378 3.8162 8.17935 3.66005C8.11491 3.50391 8.02056 3.36224 7.90182 3.24305C7.78309 3.12387 7.6423 3.0295 7.48759 2.96517C7.33288 2.90085 7.16718 2.86778 6.99991 2.86778ZM9.34406 4.15287C9.34406 4.46101 9.2836 4.76622 9.16605 5.05108C9.0485 5.33595 8.87612 5.59499 8.65859 5.81334C8.44106 6.03169 8.18265 6.20507 7.89802 6.32341C7.61338 6.44176 7.30819 6.50271 6.99991 6.50271C6.69163 6.50271 6.38644 6.44176 6.1018 6.32341C5.81717 6.20506 5.55876 6.03169 5.34123 5.81334C5.1237 5.59499 4.95132 5.33595 4.83377 5.05108C4.71622 4.76622 4.65576 4.46101 4.65576 4.15287C4.65576 3.84472 4.71622 3.53951 4.83377 3.25465C4.95132 2.96978 5.1237 2.71074 5.34123 2.4924C5.55876 2.27404 5.81717 2.10067 6.10181 1.98232C6.38645 1.86398 6.69163 1.80302 6.99991 1.80302C7.30819 1.80302 7.61338 1.86398 7.89802 1.98232C8.18265 2.10067 8.44107 2.27404 8.65859 2.4924C8.87612 2.71074 9.0485 2.96979 9.16605 3.25465C9.2836 3.53952 9.34406 3.84472 9.34406 4.15287Z" fill="white"/>
</svg>
