<svg width="24" height="24" viewBox="0 0 24 24" fill="none" xmlns="http://www.w3.org/2000/svg">
<path d="M20.6291 8.18073C19.8446 8.66103 19.1948 9.3325 18.7404 10.1323C18.2861 10.9321 18.0422 11.8342 18.0314 12.7539C18.0345 13.7892 18.3412 14.8007 18.9135 15.6633C19.4858 16.526 20.2986 17.2017 21.2512 17.607C20.8757 18.8188 20.3198 19.9671 19.6024 21.0134C18.5758 22.4912 17.5025 23.9688 15.8693 23.9688C14.2361 23.9688 13.816 23.02 11.9339 23.02C10.0984 23.02 9.44507 24 7.95179 24C6.45851 24 5.41645 22.6311 4.21867 20.9512C2.63648 18.5979 1.76693 15.838 1.71436 13.0027C1.71436 8.33631 4.7476 5.86317 7.73401 5.86317C9.32067 5.86317 10.6429 6.90523 11.6384 6.90523C12.5872 6.90523 14.065 5.80082 15.8693 5.80082C16.797 5.77689 17.7163 5.98143 18.5463 6.39645C19.3764 6.81146 20.0916 7.42421 20.6291 8.18073ZM15.0138 3.82545C15.8092 2.88981 16.2594 1.70959 16.2893 0.481945C16.2906 0.320106 16.275 0.158572 16.2426 0C14.8764 0.133459 13.613 0.78463 12.7116 1.81995C11.9086 2.7183 11.4414 3.867 11.3894 5.07082C11.39 5.21723 11.4057 5.36318 11.4361 5.50638C11.5438 5.52674 11.6532 5.53718 11.7628 5.53756C12.3924 5.48745 13.0053 5.30984 13.5642 5.01552C14.1231 4.72119 14.6163 4.3163 15.0138 3.82545Z" fill="white"/>
</svg>
