<svg width="14" height="14" viewBox="0 0 14 14" fill="none" xmlns="http://www.w3.org/2000/svg">
<path d="M12.0336 4.77209C11.576 5.05227 11.1969 5.44396 10.9319 5.91052C10.6669 6.37709 10.5246 6.90326 10.5183 7.4398C10.5201 8.04367 10.699 8.63375 11.0328 9.13695C11.3667 9.64014 11.8408 10.0343 12.3965 10.2707C12.1774 10.9776 11.8532 11.6475 11.4347 12.2578C10.8359 13.1199 10.2097 13.9818 9.25703 13.9818C8.30433 13.9818 8.0593 13.4283 6.96138 13.4283C5.8907 13.4283 5.50958 14 4.6385 14C3.76742 14 3.15956 13.2015 2.46085 12.2216C1.53791 10.8488 1.03067 9.23884 1 7.58494C1 4.86285 2.76939 3.42018 4.51147 3.42018C5.43701 3.42018 6.20829 4.02805 6.78901 4.02805C7.3425 4.02805 8.20453 3.38381 9.25703 3.38381C9.79818 3.36985 10.3345 3.48917 10.8187 3.73126C11.3028 3.97335 11.7201 4.33079 12.0336 4.77209ZM8.75801 2.23151C9.22197 1.68572 9.48461 0.997263 9.50205 0.281135C9.50284 0.186728 9.49371 0.0925003 9.47482 0C8.67785 0.0778512 7.94088 0.457701 7.41506 1.06164C6.94663 1.58568 6.6741 2.25575 6.64379 2.95798C6.64414 3.04338 6.65327 3.12852 6.67102 3.21206C6.73385 3.22393 6.79764 3.23002 6.86158 3.23024C7.22888 3.20102 7.58639 3.09741 7.91241 2.92572C8.23842 2.75403 8.52611 2.51784 8.75801 2.23151Z" fill="white"/>
</svg>
