<svg width="14" height="14" viewBox="0 0 14 14" fill="none" xmlns="http://www.w3.org/2000/svg">
<g clip-path="url(#clip0_156_19)">
<path d="M14 7C14 5.61553 13.5895 4.26216 12.8203 3.11101C12.0511 1.95987 10.9579 1.06266 9.67879 0.532846C8.3997 0.003033 6.99224 -0.13559 5.63437 0.134506C4.2765 0.404603 3.02922 1.07129 2.05026 2.05026C1.07129 3.02922 0.404603 4.2765 0.134506 5.63437C-0.13559 6.99224 0.003033 8.3997 0.532846 9.67879C1.06266 10.9579 1.95987 12.0511 3.11101 12.8203C4.26216 13.5895 5.61553 14 7 14C8.8559 13.998 10.6352 13.2599 11.9475 11.9475C13.2599 10.6352 13.998 8.8559 14 7ZM1.16667 7C1.16667 5.84628 1.50879 4.71846 2.14976 3.75918C2.79074 2.79989 3.70178 2.05222 4.76768 1.61071C5.83359 1.16919 7.00647 1.05368 8.13803 1.27876C9.26959 1.50384 10.309 2.05941 11.1248 2.87521C11.9406 3.69102 12.4962 4.73042 12.7213 5.86198C12.9463 6.99353 12.8308 8.16642 12.3893 9.23232C11.9478 10.2982 11.2001 11.2093 10.2408 11.8502C9.28154 12.4912 8.15373 12.8333 7 12.8333C5.45343 12.8316 3.97068 12.2165 2.87709 11.1229C1.7835 10.0293 1.16837 8.54658 1.16667 7ZM7.14175 9.47509L6.31692 10.2999L3.84184 7.82484C3.62312 7.60605 3.50025 7.30936 3.50025 7C3.50025 6.69064 3.62312 6.39395 3.84184 6.17517L6.31692 3.70009L7.14175 4.52492L5.25 6.41667H10.5V7.58334H5.25L7.14175 9.47509Z" fill="white"/>
</g>
<defs>
<clipPath id="clip0_156_19">
<rect width="14" height="14" fill="white"/>
</clipPath>
</defs>
</svg>
