<svg width="18" height="18" viewBox="0 0 18 18" fill="none" xmlns="http://www.w3.org/2000/svg">
<path d="M18 9C18 7.21997 17.4722 5.47991 16.4832 3.99987C15.4943 2.51983 14.0887 1.36628 12.4442 0.685088C10.7996 0.00389957 8.99002 -0.17433 7.24419 0.172937C5.49836 0.520204 3.89472 1.37737 2.63604 2.63604C1.37737 3.89472 0.520204 5.49836 0.172937 7.24419C-0.17433 8.99002 0.00389957 10.7996 0.685088 12.4442C1.36628 14.0887 2.51983 15.4943 3.99987 16.4832C5.47991 17.4722 7.21997 18 9 18C11.3862 17.9974 13.6738 17.0484 15.3611 15.3611C17.0484 13.6738 17.9974 11.3862 18 9ZM1.5 9C1.5 7.51664 1.93987 6.0666 2.76398 4.83323C3.58809 3.59986 4.75943 2.63856 6.12988 2.07091C7.50032 1.50325 9.00832 1.35473 10.4632 1.64411C11.918 1.9335 13.2544 2.64781 14.3033 3.6967C15.3522 4.7456 16.0665 6.08197 16.3559 7.53683C16.6453 8.99168 16.4968 10.4997 15.9291 11.8701C15.3614 13.2406 14.4001 14.4119 13.1668 15.236C11.9334 16.0601 10.4834 16.5 9 16.5C7.01155 16.4978 5.10516 15.7069 3.69911 14.3009C2.29307 12.8948 1.50219 10.9885 1.5 9ZM9.18225 12.1823L8.12175 13.2428L4.9395 10.0605C4.6583 9.77921 4.50032 9.39775 4.50032 9C4.50032 8.60226 4.6583 8.2208 4.9395 7.9395L8.12175 4.75725L9.18225 5.81775L6.75 8.25H13.5V9.75H6.75L9.18225 12.1823Z" fill="white"/>
</svg>
