<svg width="18" height="17" viewBox="0 0 18 17" fill="none" xmlns="http://www.w3.org/2000/svg">
<path d="M6 1.5L7.41 2.91M10.59 2.91L12 1.5M6.75 5.3475V4.5975C6.7364 4.29356 6.78453 3.99002 6.89147 3.70519C6.99841 3.42036 7.16195 3.16015 7.37222 2.94026C7.58249 2.72037 7.83513 2.54537 8.1149 2.42581C8.39467 2.30624 8.69576 2.2446 9 2.2446C9.30424 2.2446 9.60533 2.30624 9.8851 2.42581C10.1649 2.54537 10.4175 2.72037 10.6278 2.94026C10.838 3.16015 11.0016 3.42036 11.1085 3.70519C11.2155 3.99002 11.2636 4.29356 11.25 4.5975V5.3475M9 15C6.525 15 4.5 12.975 4.5 10.5V8.25C4.5 7.45435 4.81607 6.69129 5.37868 6.12868C5.94129 5.56607 6.70435 5.25 7.5 5.25H10.5C11.2956 5.25 12.0587 5.56607 12.6213 6.12868C13.1839 6.69129 13.5 7.45435 13.5 8.25V10.5C13.5 12.975 11.475 15 9 15ZM9 15V8.25M4.8975 6.75C3.45 6.6 2.25 5.325 2.25 3.75M4.5 9.75H1.5M2.25 15.75C2.25 14.175 3.525 12.825 5.1 12.75M15.7275 3.75C15.7275 5.325 14.5275 6.6 13.1025 6.75M16.5 9.75H13.5M12.9 12.75C14.475 12.825 15.75 14.175 15.75 15.75" stroke="white" stroke-width="1.66667" stroke-linecap="round" stroke-linejoin="round"/>
</svg>
