<svg width="14" height="13" viewBox="0 0 14 13" fill="none" xmlns="http://www.w3.org/2000/svg">
<path d="M4.66675 1.16675L5.76341 2.26341M8.23675 2.26341L9.33342 1.16675M5.25008 4.15925V3.57591C5.23951 3.33952 5.27694 3.10343 5.36011 2.88189C5.44329 2.66036 5.57049 2.45797 5.73403 2.28695C5.89758 2.11593 6.09408 1.97981 6.31167 1.88682C6.52927 1.79383 6.76345 1.74588 7.00008 1.74588C7.23671 1.74588 7.4709 1.79383 7.68849 1.88682C7.90609 1.97981 8.10259 2.11593 8.26613 2.28695C8.42967 2.45797 8.55687 2.66036 8.64005 2.88189C8.72323 3.10343 8.76066 3.33952 8.75008 3.57591V4.15925M7.00008 11.6667C5.07508 11.6667 3.50008 10.0917 3.50008 8.16675V6.41675C3.50008 5.79791 3.74591 5.20442 4.1835 4.76683C4.62108 4.32925 5.21458 4.08341 5.83342 4.08341H8.16675C8.78559 4.08341 9.37908 4.32925 9.81666 4.76683C10.2542 5.20442 10.5001 5.79791 10.5001 6.41675V8.16675C10.5001 10.0917 8.92508 11.6667 7.00008 11.6667ZM7.00008 11.6667V6.41675M3.80925 5.25008C2.68341 5.13341 1.75008 4.14175 1.75008 2.91675M3.50008 7.58342H1.16675M1.75008 12.2501C1.75008 11.0251 2.74175 9.97508 3.96675 9.91675M12.2326 2.91675C12.2326 4.14175 11.2992 5.13341 10.1909 5.25008M12.8334 7.58342H10.5001M10.0334 9.91675C11.2584 9.97508 12.2501 11.0251 12.2501 12.2501" stroke="white" stroke-width="1.33333" stroke-linecap="round" stroke-linejoin="round"/>
</svg>
