<svg width="24" height="24" viewBox="0 0 24 24" fill="none" xmlns="http://www.w3.org/2000/svg">
<path d="M21.8188 11.9956C21.8187 11.4466 21.6809 10.9063 21.4172 10.4247C21.1535 9.94293 20.7723 9.53513 20.3096 9.23926C19.923 8.99203 19.733 8.52924 19.8335 8.08154C19.9545 7.54334 19.9369 6.98292 19.7834 6.45307C19.6299 5.92326 19.3448 5.44051 18.9548 5.05039C18.5647 4.66025 18.0821 4.37434 17.5521 4.22071C17.0884 4.08629 16.6012 4.05657 16.126 4.13231L15.9237 4.17172C15.5316 4.25988 15.1275 4.12438 14.8671 3.82984L14.7649 3.69457C14.4691 3.23202 14.0621 2.85063 13.5805 2.58691C13.159 2.3561 12.6921 2.22183 12.2141 2.19178L12.0085 2.18539C11.4595 2.18542 10.9191 2.3233 10.4376 2.58691C9.95585 2.85067 9.54801 3.23189 9.25215 3.69457C9.00501 4.0811 8.54211 4.27209 8.09443 4.17172C7.55703 4.05128 6.99816 4.0686 6.46916 4.22178C5.94002 4.37502 5.45748 4.65914 5.06754 5.04826C4.67774 5.43734 4.39218 5.91905 4.23786 6.44775C4.08367 6.97636 4.06529 7.53545 4.18461 8.07302C4.28426 8.52191 4.09174 8.98485 3.7032 9.23074C3.23708 9.52574 2.85315 9.93402 2.58702 10.4172C2.3209 10.9006 2.18126 11.4439 2.18124 11.9956L2.18763 12.2023C2.21799 12.6824 2.35417 13.1511 2.58702 13.574C2.85313 14.0573 3.23707 14.4655 3.7032 14.7605C4.09172 15.0064 4.28422 15.4694 4.18461 15.9182C4.06522 16.456 4.08351 17.0158 4.23786 17.5446C4.39218 18.0731 4.67786 18.554 5.06754 18.943C5.45748 19.3321 5.94002 19.6173 6.46916 19.7705C6.99804 19.9236 7.55716 19.941 8.09443 19.8206L8.26271 19.7961C8.65541 19.7705 9.0372 19.9594 9.25322 20.2988L9.36931 20.4692C9.65194 20.8573 10.0174 21.1789 10.4397 21.4107C10.9221 21.6756 11.4635 21.8143 12.0138 21.8144C12.5644 21.8144 13.1065 21.6757 13.5891 21.4107C14.0715 21.1458 14.479 20.7632 14.7745 20.2988L14.8767 20.1636C15.1363 19.8687 15.5391 19.7326 15.9311 19.8195L16.1335 19.8579C16.6082 19.9323 17.0946 19.9014 17.5575 19.7663C18.0862 19.6119 18.5679 19.3265 18.957 18.9366C19.3459 18.5468 19.6302 18.065 19.7834 17.5361C19.9367 17.007 19.954 16.4472 19.8335 15.9097C19.7331 15.462 19.9231 14.9991 20.3096 14.752C20.7723 14.4561 21.1535 14.0483 21.4172 13.5666C21.6808 13.085 21.8188 12.5447 21.8188 11.9956ZM24 11.9956C24 12.911 23.7697 13.8117 23.3301 14.6146C23.0079 15.203 22.5799 15.7237 22.0712 16.1547C22.129 16.8215 22.0657 17.4952 21.8784 18.1421C21.623 19.024 21.1488 19.8278 20.5002 20.4777C19.8518 21.1274 19.0499 21.6029 18.1688 21.8602C17.5223 22.0489 16.8483 22.1136 16.1814 22.0572C15.7502 22.5685 15.2281 22.9986 14.6381 23.3225C13.8339 23.764 12.9313 23.9956 12.0138 23.9956C11.0964 23.9956 10.1937 23.764 9.38954 23.3225C8.80003 22.9988 8.27835 22.5691 7.84734 22.0583C7.18125 22.1157 6.50825 22.0526 5.86208 21.8655C4.98024 21.6101 4.17735 21.1358 3.52747 20.4873C2.87766 19.8389 2.40124 19.0371 2.14396 18.1559C1.95538 17.5099 1.88969 16.8361 1.94586 16.1696C1.43293 15.7386 1.00146 15.2158 0.676311 14.6253C0.28829 13.9204 0.0612128 13.1399 0.0106506 12.3396L0 11.9956C1.78858e-05 11.0761 0.23283 10.1716 0.676311 9.366C1.00159 8.7752 1.43265 8.25172 1.94586 7.82061C1.88989 7.15466 1.95559 6.48194 2.14396 5.8364C2.40122 4.95504 2.87757 4.15247 3.52747 3.50393C4.17733 2.85551 4.98029 2.38112 5.86208 2.12574C6.50888 1.93844 7.18275 1.87416 7.84947 1.9319C8.28035 1.42355 8.80142 0.996116 9.38954 0.674071C10.1924 0.234486 11.0932 0.00418565 12.0085 0.00415039L12.3515 0.014801C13.1479 0.0649528 13.9251 0.289512 14.6275 0.674071C15.2156 0.996082 15.7367 1.42359 16.1676 1.9319C16.8357 1.87366 17.511 1.93786 18.1592 2.12574C19.0425 2.38175 19.8468 2.85691 20.497 3.50712C21.1472 4.15732 21.6223 4.96178 21.8784 5.84492C22.0663 6.49305 22.1294 7.16849 22.0712 7.83658C22.5799 8.26757 23.0079 8.78827 23.3301 9.37665C23.7697 10.1795 24 11.0803 24 11.9956Z" fill="white"/>
<path d="M14.5926 8.96874C15.021 8.61936 15.6525 8.644 16.0517 9.04329C16.451 9.44258 16.4757 10.0741 16.1263 10.5024L16.0517 10.5855L11.6893 14.948C11.29 15.3473 10.6585 15.3719 10.2301 15.0225L10.1471 14.948L7.96583 12.7667L7.89128 12.6837C7.5419 12.2553 7.56654 11.6238 7.96583 11.2245C8.36512 10.8252 8.99659 10.8006 9.42496 11.15L9.50803 11.2245L10.9182 12.6347L14.5095 9.04329L14.5926 8.96874Z" fill="white"/>
</svg>
