<svg width="16" height="16" viewBox="0 0 16 16" fill="none" xmlns="http://www.w3.org/2000/svg">
<path d="M14.5455 6.54545C14.5455 6.14379 14.2198 5.81818 13.8182 5.81818H6.54545C6.14379 5.81818 5.81818 6.14379 5.81818 6.54545V13.8182C5.81818 14.2198 6.14379 14.5455 6.54545 14.5455H13.8182C14.2198 14.5455 14.5455 14.2198 14.5455 13.8182V6.54545ZM10.1818 2.18182C10.1818 1.78348 9.85288 1.45455 9.45455 1.45455H2.18182C1.78348 1.45455 1.45455 1.78348 1.45455 2.18182V9.45455C1.45455 9.85288 1.78348 10.1818 2.18182 10.1818C2.58348 10.1818 2.90909 10.5074 2.90909 10.9091C2.90909 11.3108 2.58348 11.6364 2.18182 11.6364C0.980157 11.6364 0 10.6562 0 9.45455V2.18182C0 0.980157 0.980157 0 2.18182 0H9.45455C10.6562 0 11.6364 0.980157 11.6364 2.18182C11.6364 2.58348 11.3108 2.90909 10.9091 2.90909C10.5074 2.90909 10.1818 2.58348 10.1818 2.18182ZM16 13.8182C16 15.0232 15.0232 16 13.8182 16H6.54545C5.34047 16 4.36364 15.0232 4.36364 13.8182V6.54545C4.36364 5.34047 5.34047 4.36364 6.54545 4.36364H13.8182C15.0232 4.36364 16 5.34047 16 6.54545V13.8182Z" fill="white"/>
</svg>
