<svg width="24" height="24" viewBox="0 0 24 24" fill="none" xmlns="http://www.w3.org/2000/svg">
<path d="M11.9999 20.6608C4.22659 20.6608 0.573252 12.2601 0.413252 11.9072C0.360441 11.7782 0.333252 11.6398 0.333252 11.5001C0.333252 11.3603 0.360441 11.2219 0.413252 11.0929C0.573252 10.7401 4.22659 2.33936 11.9999 2.33936C19.7733 2.33936 23.4266 10.7401 23.5866 11.0929C23.6394 11.2219 23.6666 11.3603 23.6666 11.5001C23.6666 11.6398 23.6394 11.7782 23.5866 11.9072C23.4266 12.2601 19.7733 20.6608 11.9999 20.6608ZM2.43992 11.5001C3.22659 13.0608 6.43992 18.6251 11.9999 18.6251C17.5599 18.6251 20.7733 13.0608 21.5599 11.5001C20.7733 9.93936 17.5599 4.37507 11.9999 4.37507C6.43992 4.37507 3.22659 9.93936 2.43992 11.5001Z" fill="white"/>
<path d="M12.0001 15.9108C11.143 15.9108 10.3052 15.6521 9.59261 15.1674C8.88 14.6828 8.32459 13.9939 7.99661 13.188C7.66863 12.382 7.58281 11.4952 7.75001 10.6396C7.91722 9.78399 8.32993 8.99808 8.93595 8.38123C9.54198 7.76438 10.3141 7.3443 11.1547 7.17411C11.9953 7.00392 12.8666 7.09127 13.6584 7.4251C14.4502 7.75894 15.127 8.32427 15.6031 9.04961C16.0793 9.77495 16.3334 10.6277 16.3334 11.5001C16.3299 12.6688 15.8722 13.7886 15.0603 14.615C14.2484 15.4414 13.1483 15.9072 12.0001 15.9108ZM12.0001 9.12507C11.5386 9.12507 11.0875 9.26436 10.7038 9.52533C10.32 9.7863 10.021 10.1572 9.84437 10.5912C9.66776 11.0252 9.62155 11.5027 9.71158 11.9634C9.80162 12.4241 10.0238 12.8473 10.3502 13.1795C10.6765 13.5116 11.0923 13.7378 11.5449 13.8294C11.9975 13.9211 12.4667 13.874 12.893 13.6943C13.3194 13.5145 13.6838 13.2101 13.9402 12.8196C14.1966 12.429 14.3334 11.9698 14.3334 11.5001C14.3299 10.8713 14.083 10.2693 13.6461 9.82463C13.2093 9.38 12.6178 9.12863 12.0001 9.12507Z" fill="white"/>
</svg>
