<svg width="14" height="14" viewBox="0 0 14 14" fill="none" xmlns="http://www.w3.org/2000/svg">
<path d="M7.81675 1.16659H3.50008C3.19066 1.16659 2.89392 1.28951 2.67512 1.5083C2.45633 1.72709 2.33341 2.02384 2.33341 2.33326V11.6666C2.33341 11.976 2.45633 12.2728 2.67512 12.4915C2.89392 12.7103 3.19066 12.8333 3.50008 12.8333H10.5001C10.8095 12.8333 11.1062 12.7103 11.325 12.4915C11.5438 12.2728 11.6667 11.976 11.6667 11.6666V7.34992M1.16675 3.49992H3.50008M1.16675 5.83326H3.50008M1.16675 8.16659H3.50008M1.16675 10.4999H3.50008M12.4706 3.28176C12.703 3.04938 12.8335 2.73422 12.8335 2.40559C12.8335 2.07696 12.703 1.7618 12.4706 1.52942C12.2382 1.29705 11.923 1.1665 11.5944 1.1665C11.2658 1.1665 10.9506 1.29705 10.7182 1.52942L7.79575 4.45309C7.65706 4.5917 7.55554 4.76304 7.50058 4.95126L7.01233 6.62542C6.99769 6.67562 6.99681 6.72883 7.00979 6.77948C7.02277 6.83013 7.04912 6.87636 7.08609 6.91333C7.12306 6.9503 7.16929 6.97666 7.21994 6.98963C7.2706 7.00261 7.3238 7.00173 7.374 6.98709L9.04816 6.49884C9.23639 6.44388 9.40772 6.34236 9.54633 6.20367L12.4706 3.28176Z" stroke="white" stroke-linecap="round" stroke-linejoin="round"/>
</svg>
