<svg width="22" height="22" viewBox="0 0 22 22" fill="none" xmlns="http://www.w3.org/2000/svg">
<path d="M12.4 0.999905H5C4.46957 0.999905 3.96086 1.21062 3.58579 1.58569C3.21071 1.96076 3 2.46947 3 2.9999V18.9999C3 19.5303 3.21071 20.039 3.58579 20.4141C3.96086 20.7892 4.46957 20.9999 5 20.9999H17C17.5304 20.9999 18.0391 20.7892 18.4142 20.4141C18.7893 20.039 19 19.5303 19 18.9999V11.5999M1 4.9999H5M1 8.9999H5M1 12.9999H5M1 16.9999H5M20.378 4.6259C20.7764 4.22755 21.0001 3.68726 21.0001 3.1239C21.0001 2.56055 20.7764 2.02026 20.378 1.6219C19.9796 1.22355 19.4394 0.999756 18.876 0.999756C18.3126 0.999756 17.7724 1.22355 17.374 1.6219L12.364 6.6339C12.1262 6.87153 11.9522 7.16524 11.858 7.4879L11.021 10.3579C10.9959 10.444 10.9944 10.5352 11.0166 10.622C11.0389 10.7088 11.0841 10.7881 11.1474 10.8515C11.2108 10.9148 11.2901 10.96 11.3769 10.9823C11.4637 11.0045 11.555 11.003 11.641 10.9779L14.511 10.1409C14.8337 10.0467 15.1274 9.87266 15.365 9.6349L20.378 4.6259Z" stroke="white" stroke-width="2" stroke-linecap="round" stroke-linejoin="round"/>
</svg>
