<svg width="18" height="18" viewBox="0 0 18 18" fill="none" xmlns="http://www.w3.org/2000/svg">
<g clip-path="url(#clip0_5191_87)">
<path fill-rule="evenodd" clip-rule="evenodd" d="M9.00003 6.8708C8.38942 6.8708 7.80381 7.11337 7.37204 7.54514C6.94027 7.97691 6.69771 8.56251 6.69771 9.17313C6.69771 9.47547 6.75726 9.77486 6.87296 10.0542C6.98866 10.3335 7.15825 10.5873 7.37204 10.8011C7.58583 11.0149 7.83964 11.1845 8.11897 11.3002C8.3983 11.4159 8.69769 11.4755 9.00003 11.4755C9.30238 11.4755 9.60176 11.4159 9.88109 11.3002C10.1604 11.1845 10.4142 11.0149 10.628 10.8011C10.8418 10.5873 11.0114 10.3335 11.1271 10.0542C11.2428 9.77486 11.3024 9.47547 11.3024 9.17313C11.3024 8.56251 11.0598 7.97691 10.628 7.54514C10.1962 7.11337 9.61065 6.8708 9.00003 6.8708ZM6.48405 6.65714C7.15133 5.98986 8.05635 5.61499 9.00003 5.61499C9.94371 5.61499 10.8487 5.98986 11.516 6.65714C12.1833 7.32442 12.5582 8.22945 12.5582 9.17313C12.5582 9.64039 12.4661 10.1031 12.2873 10.5348C12.1085 10.9665 11.8464 11.3587 11.516 11.6891C11.1856 12.0195 10.7934 12.2816 10.3617 12.4604C9.92998 12.6392 9.46729 12.7313 9.00003 12.7313C8.53277 12.7313 8.07008 12.6392 7.63839 12.4604C7.2067 12.2816 6.81445 12.0195 6.48405 11.6891C6.15365 11.3587 5.89155 10.9665 5.71274 10.5348C5.53393 10.1031 5.44189 9.64039 5.44189 9.17313C5.44189 8.22945 5.81677 7.32442 6.48405 6.65714Z" fill="white"/>
<path fill-rule="evenodd" clip-rule="evenodd" d="M5.6636 0.855411C5.80064 0.795241 6.00036 0.72659 6.23717 0.757787L6.24084 0.75827C6.49886 0.793805 6.69007 0.942217 6.80019 1.03499C6.91644 1.13291 7.05015 1.2663 7.19241 1.40822L7.21124 1.427C7.21129 1.42706 7.21118 1.42694 7.21124 1.427C8.1886 2.40082 9.81309 2.40075 10.7894 1.42723C10.7894 1.4272 10.7893 1.42726 10.7894 1.42723L10.8014 1.41517C10.9465 1.2701 11.0828 1.13377 11.2016 1.03393C11.3122 0.940927 11.5048 0.792001 11.7645 0.757787C12.0021 0.726482 12.2023 0.79601 12.3381 0.85562C12.4616 0.909859 12.6013 0.988807 12.7369 1.06539C12.7453 1.07016 12.7538 1.07492 12.7622 1.07966L12.7637 1.0805L14.2075 1.90077L14.2274 1.91209C14.3682 1.99187 14.5124 2.07364 14.6258 2.15434C14.7477 2.24106 14.9129 2.3794 15.0076 2.60328C15.1109 2.8476 15.0776 3.094 15.053 3.23652C15.0261 3.39235 14.9762 3.58353 14.9226 3.78902L14.9182 3.80606C14.5865 5.08412 15.3965 6.45818 16.7073 6.81195C16.7074 6.81197 16.7072 6.81192 16.7073 6.81195L16.7215 6.81576C16.9237 6.86998 17.1128 6.92068 17.2606 6.97428C17.3968 7.02368 17.6236 7.11619 17.7837 7.32444C17.9317 7.517 17.9706 7.72847 17.9859 7.87714C18.0001 8.01469 18 8.17928 18 8.33939V10.0067C18 10.1668 18.0001 10.3312 17.9859 10.4687C17.9705 10.6181 17.9315 10.828 17.7851 11.0199L17.7837 11.0217C17.6237 11.2298 17.3969 11.3224 17.2611 11.3718C17.1146 11.425 16.9271 11.4756 16.7267 11.5298L16.7078 11.5349C15.3969 11.8885 14.5874 13.2625 14.9198 14.5397L14.9246 14.5582C14.9778 14.7637 15.0271 14.9543 15.0537 15.1096C15.0783 15.2529 15.1104 15.4957 15.0103 15.7375C14.9165 15.9641 14.7504 16.1039 14.6277 16.1914C14.5134 16.2728 14.368 16.355 14.2266 16.435L14.2077 16.4457L12.7654 17.2647L12.7479 17.2747C12.6086 17.3539 12.4656 17.4352 12.3388 17.4908C12.2019 17.5509 12.0021 17.6195 11.7653 17.5883L11.7617 17.5878C11.5037 17.5523 11.3124 17.4039 11.2023 17.3111C11.0861 17.2132 10.9523 17.0798 10.8101 16.9379L10.7911 16.9189C9.81395 15.9438 8.18814 15.9436 7.2109 16.9186C7.21084 16.9187 7.21097 16.9185 7.2109 16.9186L7.19857 16.9309C7.05352 17.076 6.9172 17.2123 6.79842 17.3122C6.68778 17.4052 6.49521 17.5541 6.2355 17.5883C5.99869 17.6195 5.79896 17.5509 5.66192 17.4907C5.53457 17.4348 5.39121 17.3531 5.25183 17.2736L5.23683 17.265L3.79142 16.4456L3.76918 16.4329C3.62942 16.3533 3.4863 16.2718 3.37381 16.1916C3.25225 16.1049 3.08711 15.9666 2.99242 15.7428C2.88906 15.4985 2.92243 15.2521 2.94702 15.1096C2.9739 14.9538 3.02376 14.7626 3.07736 14.5571L3.08184 14.54C3.41349 13.2628 2.60353 11.8886 1.29238 11.5349L1.27328 11.5298C1.07287 11.4756 0.885446 11.425 0.738942 11.3718C0.603078 11.3224 0.376316 11.2298 0.216314 11.0217C0.0682998 10.8291 0.0293826 10.6176 0.0140841 10.469C-6.91697e-05 10.3314 -3.22421e-05 10.1668 3.63712e-06 10.0067C5.43357e-06 9.99868 7.23002e-06 9.99065 7.23002e-06 9.98263V8.36347C7.23002e-06 8.35545 5.43357e-06 8.34741 3.63712e-06 8.33936C-3.23918e-05 8.17929 -6.93694e-05 8.01487 0.0140907 7.8774C0.0294732 7.72805 0.0685168 7.51815 0.214944 7.32623C0.375367 7.11596 0.60347 7.02315 0.739852 6.97381C0.885477 6.92112 1.07163 6.87121 1.27004 6.81802L1.29246 6.81201C2.60434 6.45832 3.41437 5.08413 3.08265 3.80606C3.08075 3.79872 3.07876 3.79103 3.07687 3.78373C3.02413 3.58007 2.97504 3.39056 2.94852 3.23622C2.92431 3.09536 2.89074 2.84952 2.99339 2.6058C3.08739 2.38087 3.25262 2.24186 3.37486 2.15473C3.48909 2.07332 3.63444 1.99111 3.77589 1.91112C3.78208 1.90761 3.78827 1.90412 3.79444 1.90062C3.79456 1.90056 3.79432 1.90069 3.79444 1.90062L5.23729 1.08176C5.23746 1.08166 5.23762 1.08157 5.23779 1.08147C5.24303 1.07849 5.24828 1.07549 5.25353 1.0725C5.39291 0.993043 5.53626 0.911324 5.6636 0.855411ZM6.05451 2.06297C6.00059 2.09226 5.93825 2.12771 5.85909 2.17283L4.41321 2.99342C4.33223 3.03924 4.26847 3.07536 4.21442 3.10738C4.21093 3.10945 4.20752 3.11148 4.20419 3.11346C4.22391 3.2025 4.25436 3.32128 4.29829 3.49093C4.80856 5.45777 3.57415 7.4975 1.61936 8.02452L1.61857 8.02474C1.45566 8.06843 1.34154 8.09932 1.25728 8.12505C1.2572 8.12862 1.25712 8.13228 1.25705 8.13601C1.25584 8.19839 1.25582 8.27106 1.25582 8.36347V9.98263C1.25582 10.075 1.25584 10.1478 1.25705 10.2102C1.25712 10.2139 1.2572 10.2175 1.25728 10.2211C1.34177 10.2471 1.45623 10.2784 1.61944 10.3224M6.05451 2.06297C6.05707 2.06158 6.05959 2.06022 6.06207 2.05888ZM6.06207 2.05888C6.12532 2.11793 6.20757 2.19963 6.32459 2.31634C7.79187 3.7786 10.2096 3.77899 11.6762 2.31636L11.6768 2.31575C11.7935 2.19906 11.8757 2.11737 11.9388 2.05848C11.9419 2.06014 11.9451 2.06183 11.9483 2.06357C12.0017 2.09244 12.0628 2.12696 12.1403 2.17073L12.1433 2.17241L12.1448 2.17325L13.5875 2.99287C13.6683 3.03872 13.7324 3.07509 13.7865 3.10718C13.7901 3.10936 13.7937 3.1115 13.7972 3.11359C13.7774 3.20241 13.7469 3.32089 13.7028 3.48986L13.7026 3.49057C13.1922 5.45744 14.4265 7.4974 16.3806 8.0245L16.3814 8.02474C16.5442 8.06838 16.6584 8.09941 16.7427 8.12525C16.7428 8.12872 16.7429 8.13226 16.7429 8.13588C16.7442 8.19834 16.7442 8.27106 16.7442 8.36347V9.98263C16.7442 10.0751 16.7442 10.1477 16.743 10.2101C16.7429 10.2138 16.7428 10.2175 16.7427 10.2211C16.6582 10.2471 16.5437 10.2784 16.3803 10.3225C14.4263 10.8497 13.1928 12.8898 13.7044 14.8559L14.3121 14.6978L13.7042 14.8552C13.7482 15.0251 13.7786 15.1438 13.7982 15.2327C13.7949 15.2347 13.7915 15.2367 13.7881 15.2387C13.734 15.2707 13.6703 15.3069 13.5893 15.3527L13.5884 15.3532L12.1451 16.1728C12.0657 16.218 12.0029 16.2535 11.9488 16.2829C11.946 16.2844 11.9433 16.2859 11.9406 16.2873C11.8773 16.2283 11.7951 16.1466 11.678 16.0299C10.2106 14.5655 7.79106 14.5655 6.32362 16.0299L6.32317 16.0304C6.20647 16.1471 6.12428 16.2288 6.06116 16.2876C6.05844 16.2862 6.05566 16.2847 6.05284 16.2831C5.99892 16.2538 5.93658 16.2184 5.85741 16.1733L4.41324 15.3545C4.41308 15.3544 4.41293 15.3543 4.41278 15.3542C4.33206 15.3082 4.26845 15.272 4.21432 15.2397C4.21034 15.2374 4.20648 15.2351 4.20271 15.2328C4.2225 15.144 4.25306 15.0254 4.29717 14.8562L4.29734 14.8556C4.8079 12.8895 3.57329 10.8496 1.61944 10.3224" fill="white"/>
</g>
<defs>
<clipPath id="clip0_5191_87">
<rect width="18" height="18" fill="white"/>
</clipPath>
</defs>
</svg>
