<svg width="18" height="18" viewBox="0 0 18 18" fill="none" xmlns="http://www.w3.org/2000/svg">
<path fill-rule="evenodd" clip-rule="evenodd" d="M1.5 4.5C1.5 4.08579 1.83579 3.75 2.25 3.75H15.75C16.1642 3.75 16.5 4.08579 16.5 4.5C16.5 4.91421 16.1642 5.25 15.75 5.25H2.25C1.83579 5.25 1.5 4.91421 1.5 4.5Z" fill="white"/>
<path fill-rule="evenodd" clip-rule="evenodd" d="M3.75 3.75C4.16421 3.75 4.5 4.08579 4.5 4.5V15C4.5 15.1311 4.57309 15.3249 4.74908 15.5009C4.92507 15.6769 5.11892 15.75 5.25 15.75H12.75C12.8811 15.75 13.0749 15.6769 13.2509 15.5009C13.4269 15.3249 13.5 15.1311 13.5 15V4.5C13.5 4.08579 13.8358 3.75 14.25 3.75C14.6642 3.75 15 4.08579 15 4.5V15C15 15.6189 14.6981 16.1751 14.3116 16.5616C13.9251 16.9481 13.3689 17.25 12.75 17.25H5.25C4.63108 17.25 4.07493 16.9481 3.68842 16.5616C3.30191 16.1751 3 15.6189 3 15V4.5C3 4.08579 3.33579 3.75 3.75 3.75Z" fill="white"/>
<path fill-rule="evenodd" clip-rule="evenodd" d="M6.99908 2.49908C6.82309 2.67507 6.75 2.86892 6.75 3V4.5C6.75 4.91421 6.41421 5.25 6 5.25C5.58579 5.25 5.25 4.91421 5.25 4.5V3C5.25 2.38108 5.55191 1.82493 5.93842 1.43842C6.32493 1.05191 6.88108 0.75 7.5 0.75H10.5C11.1189 0.75 11.6751 1.05191 12.0616 1.43842C12.4481 1.82493 12.75 2.38108 12.75 3V4.5C12.75 4.91421 12.4142 5.25 12 5.25C11.5858 5.25 11.25 4.91421 11.25 4.5V3C11.25 2.86892 11.1769 2.67507 11.0009 2.49908C10.8249 2.32309 10.6311 2.25 10.5 2.25H7.5C7.36892 2.25 7.17507 2.32309 6.99908 2.49908Z" fill="white"/>
<path fill-rule="evenodd" clip-rule="evenodd" d="M7.5 7.5C7.91421 7.5 8.25 7.83579 8.25 8.25V12.75C8.25 13.1642 7.91421 13.5 7.5 13.5C7.08579 13.5 6.75 13.1642 6.75 12.75V8.25C6.75 7.83579 7.08579 7.5 7.5 7.5Z" fill="white"/>
<path fill-rule="evenodd" clip-rule="evenodd" d="M10.5 7.5C10.9142 7.5 11.25 7.83579 11.25 8.25V12.75C11.25 13.1642 10.9142 13.5 10.5 13.5C10.0858 13.5 9.75 13.1642 9.75 12.75V8.25C9.75 7.83579 10.0858 7.5 10.5 7.5Z" fill="white"/>
</svg>
